<?xml version="1.0" encoding="UTF-8"?>
<svg width="35px" height="36px" viewBox="0 0 35 36" version="1.1" xmlns="http://www.w3.org/2000/svg" xmlns:xlink="http://www.w3.org/1999/xlink">
    <!-- Generator: Sketch 51.3 (57544) - http://www.bohemiancoding.com/sketch -->
    <title>Fill 19</title>
    <desc>Created with Sketch.</desc>
    <defs></defs>
    <g id="Page-1" stroke="none" stroke-width="1" fill="none" fill-rule="evenodd">
        <path d="M21.3452,27.4402 L13.9482,27.4402 L13.9482,26.9132 C14.5532,26.8932 15.0022,26.7172 15.2952,26.3852 C15.4912,26.1612 15.5882,25.5652 15.5882,24.5982 L15.5882,16.6002 C15.5882,15.6332 15.4762,15.0162 15.2512,14.7472 C15.0272,14.4792 14.5922,14.3252 13.9482,14.2862 L13.9482,13.7442 L19.6902,13.7442 L19.6902,24.5982 C19.6902,25.5652 19.8022,26.1832 20.0272,26.4512 C20.2512,26.7202 20.6912,26.8742 21.3452,26.9132 L21.3452,27.4402 Z M16.0422,7.7742 C16.4822,7.3302 17.0142,7.1082 17.6392,7.1082 C18.2742,7.1082 18.8112,7.3302 19.2502,7.7742 C19.6902,8.2192 19.9092,8.7532 19.9092,9.3782 C19.9092,10.0032 19.6872,10.5362 19.2432,10.9752 C18.7992,11.4152 18.2642,11.6342 17.6392,11.6342 C17.0142,11.6342 16.4822,11.4152 16.0422,10.9752 C15.6032,10.5362 15.3832,10.0032 15.3832,9.3782 C15.3832,8.7532 15.6032,8.2192 16.0422,7.7742 Z M17.5002,0.4692 C7.8352,0.4692 0.0002,8.3042 0.0002,17.9692 C0.0002,27.6342 7.8352,35.4692 17.5002,35.4692 C27.1652,35.4692 35.0002,27.6342 35.0002,17.9692 C35.0002,8.3042 27.1652,0.4692 17.5002,0.4692 Z" id="Fill-19" fill="#006BCC"></path>
    </g>
</svg>