<?xml version="1.0" encoding="UTF-8"?>
<svg width="34px" height="34px" viewBox="0 0 34 34" version="1.1" xmlns="http://www.w3.org/2000/svg" xmlns:xlink="http://www.w3.org/1999/xlink">
    <!-- Generator: Sketch 51.3 (57544) - http://www.bohemiancoding.com/sketch -->
    <title>Fill 1</title>
    <desc>Created with Sketch.</desc>
    <defs></defs>
    <g id="Page-1" stroke="none" stroke-width="1" fill="none" fill-rule="evenodd">
        <path d="M27.2095,19.9685 L19.7035,19.9685 L19.7035,27.4695 L13.7035,27.4695 L13.7035,19.9685 L6.2085,19.9685 L6.2085,13.9685 L13.7035,13.9685 L13.7035,6.4695 L19.7035,6.4695 L19.7035,13.9685 L27.2095,13.9685 L27.2095,19.9685 Z M27.2035,0.4685 L6.2035,0.4685 C2.8905,0.4685 0.2035,3.1555 0.2035,6.4685 L0.2035,27.4685 C0.2035,30.7815 2.8905,33.4685 6.2035,33.4685 L27.2035,33.4685 C30.5205,33.4685 33.2035,30.7815 33.2035,27.4685 L33.2035,6.4685 C33.2035,3.1555 30.5205,0.4685 27.2035,0.4685 Z" id="Fill-1" fill="#4A4A4A"></path>
    </g>
</svg>