<?xml version="1.0" encoding="UTF-8"?>
<svg width="34px" height="33px" viewBox="0 0 34 33" version="1.1" xmlns="http://www.w3.org/2000/svg" xmlns:xlink="http://www.w3.org/1999/xlink">
    <!-- Generator: Sketch 51.3 (57544) - http://www.bohemiancoding.com/sketch -->
    <title>Fill 11</title>
    <desc>Created with Sketch.</desc>
    <defs></defs>
    <g id="Page-1" stroke="none" stroke-width="1" fill="none" fill-rule="evenodd">
        <path d="M27.9907,19.5003 L20.4847,19.5003 L20.4847,27.0013 L14.4847,27.0013 L14.4847,19.5003 L6.9897,19.5003 L6.9897,13.5003 L14.4847,13.5003 L14.4847,6.0003 L20.4847,6.0003 L20.4847,13.5003 L27.9907,13.5003 L27.9907,19.5003 Z M27.9847,0.0003 L6.9847,0.0003 C3.6717,0.0003 0.9847,2.6873 0.9847,6.0003 L0.9847,27.0003 C0.9847,30.3133 3.6717,33.0003 6.9847,33.0003 L27.9847,33.0003 C31.3017,33.0003 33.9847,30.3133 33.9847,27.0003 L33.9847,6.0003 C33.9847,2.6873 31.3017,0.0003 27.9847,0.0003 Z" id="Fill-11" fill="#006BCC"></path>
    </g>
</svg>