<?xml version="1.0" encoding="UTF-8"?>
<svg width="34px" height="45px" viewBox="0 0 34 45" version="1.1" xmlns="http://www.w3.org/2000/svg" xmlns:xlink="http://www.w3.org/1999/xlink">
    <!-- Generator: Sketch 51.3 (57544) - http://www.bohemiancoding.com/sketch -->
    <title>Fill 5</title>
    <desc>Created with Sketch.</desc>
    <defs></defs>
    <g id="Page-1" stroke="none" stroke-width="1" fill="none" fill-rule="evenodd">
        <path d="M32,40.469 C32,41.573 31.104,42.469 30,42.469 L4,42.469 C2.896,42.469 2,41.573 2,40.469 L2,20.469 C2,19.365 2.896,18.469 4,18.469 L30,18.469 C31.104,18.469 32,19.365 32,20.469 L32,40.469 Z M7.994,11.465 C8.003,6.5 12.031,2.479 17,2.479 C21.969,2.479 25.997,6.5 26.006,11.465 L26.007,11.465 L26.007,16.469 L7.994,16.469 L7.994,11.465 Z M30,16.469 L27.998,16.469 L27.998,11.464 C27.998,5.392 23.074,0.469 17,0.469 C10.926,0.469 6.002,5.392 6.002,11.464 L6.002,16.469 L4,16.469 C1.791,16.469 0,18.26 0,20.469 L0,40.469 C0,42.678 1.791,44.469 4,44.469 L30,44.469 C32.209,44.469 34,42.678 34,40.469 L34,20.469 C34,18.26 32.209,16.469 30,16.469 Z M17,25.469 C15.343,25.469 14,26.813 14,28.469 C14,29.774 14.838,30.872 16,31.285 L16,34.469 C16,35.022 16.448,35.469 17,35.469 C17.553,35.469 18,35.022 18,34.469 L18,31.285 C19.162,30.872 20,29.774 20,28.469 C20,26.813 18.657,25.469 17,25.469 Z" id="Fill-5" fill="#006BCC"></path>
    </g>
</svg>