<?xml version="1.0" encoding="UTF-8"?>
<svg width="35px" height="36px" viewBox="0 0 35 36" version="1.1" xmlns="http://www.w3.org/2000/svg" xmlns:xlink="http://www.w3.org/1999/xlink">
    <!-- Generator: Sketch 51.3 (57544) - http://www.bohemiancoding.com/sketch -->
    <title>Fill 17</title>
    <desc>Created with Sketch.</desc>
    <defs></defs>
    <g id="Page-1" stroke="none" stroke-width="1" fill="none" fill-rule="evenodd">
        <path d="M20.6709,17.8845 L19.2339,19.3065 C18.5919,20.0165 18.2719,21.0395 18.2719,22.3735 L15.8329,22.3735 C15.8499,21.3285 15.9689,20.5045 16.1889,19.8985 C16.4079,19.2935 16.8569,18.6215 17.5329,17.8845 L19.2599,16.1075 C19.9989,15.2745 20.3679,14.3805 20.3679,13.4245 C20.3679,12.5035 20.1259,11.7815 19.6429,11.2595 C19.1589,10.7385 18.4559,10.4775 17.5329,10.4775 C16.6369,10.4775 15.9159,10.7145 15.3709,11.1895 C14.8259,11.6635 14.5539,12.3015 14.5539,13.1005 L12.1149,13.1005 C12.1319,11.6765 12.6399,10.5285 13.6379,9.6535 C14.6349,8.7795 15.9339,8.3415 17.5329,8.3415 C19.1939,8.3415 20.4879,8.7865 21.4159,9.6775 C22.3429,10.5685 22.8069,11.7905 22.8069,13.3435 C22.8069,14.8795 22.0949,16.3925 20.6709,17.8845 M18.2449,27.5525 C17.9989,27.8145 17.6389,27.9455 17.1639,27.9455 C16.6899,27.9455 16.3309,27.8145 16.0899,27.5525 C15.8479,27.2915 15.7269,26.9605 15.7269,26.5615 C15.7269,26.1625 15.8479,25.8275 16.0899,25.5565 C16.3309,25.2855 16.6899,25.1505 17.1639,25.1505 C17.6389,25.1505 17.9989,25.2855 18.2449,25.5565 C18.4909,25.8275 18.6139,26.1625 18.6139,26.5615 C18.6139,26.9605 18.4909,27.2915 18.2449,27.5525 M17.4999,0.4685 C7.8349,0.4685 -0.0001,8.3035 -0.0001,17.9685 C-0.0001,27.6345 7.8349,35.4685 17.4999,35.4685 C27.1649,35.4685 34.9999,27.6345 34.9999,17.9685 C34.9999,8.3035 27.1649,0.4685 17.4999,0.4685" id="Fill-17" fill="#006BCC"></path>
    </g>
</svg>