<?xml version="1.0" encoding="UTF-8"?>
<svg width="35px" height="36px" viewBox="0 0 35 36" version="1.1" xmlns="http://www.w3.org/2000/svg" xmlns:xlink="http://www.w3.org/1999/xlink">
    <!-- Generator: Sketch 51.3 (57544) - http://www.bohemiancoding.com/sketch -->
    <title>Fill 3</title>
    <desc>Created with Sketch.</desc>
    <defs></defs>
    <g id="Page-1" stroke="none" stroke-width="1" fill="none" fill-rule="evenodd">
        <path d="M17.5,22.7454 C14.862,22.7454 12.724,20.6074 12.724,17.9694 C12.724,15.3314 14.862,13.1934 17.5,13.1934 C20.138,13.1934 22.276,15.3314 22.276,17.9694 C22.276,20.6074 20.138,22.7454 17.5,22.7454 M34.205,15.5824 L30.553,14.4874 C30.244,13.3284 29.764,12.2464 29.173,11.2364 L31,7.8454 C31.31,7.5344 31.31,7.0304 31,6.7204 L28.75,4.4694 C28.439,4.1594 27.935,4.1594 27.624,4.4694 L24.236,6.2944 C23.225,5.7014 22.142,5.2204 20.98,4.9114 L19.886,1.2644 C19.886,0.8254 19.53,0.4694 19.091,0.4694 L15.909,0.4694 C15.469,0.4694 15.114,0.8254 15.114,1.2644 L14.02,4.9114 C12.858,5.2194 11.775,5.7014 10.764,6.2944 L7.376,4.4694 C7.065,4.1594 6.561,4.1594 6.25,4.4694 L4,6.7204 C3.69,7.0304 3.69,7.5344 4,7.8454 L5.827,11.2364 C5.236,12.2464 4.756,13.3284 4.447,14.4874 L0.795,15.5824 C0.356,15.5824 0,15.9394 0,16.3784 L0,19.5594 C0,19.9994 0.356,20.3554 0.795,20.3554 L4.446,21.4504 C4.756,22.6094 5.235,23.6914 5.827,24.7024 L4,28.0934 C3.69,28.4044 3.69,28.9084 4,29.2194 L6.25,31.4684 C6.561,31.7794 7.065,31.7794 7.376,31.4684 L10.763,29.6444 C11.774,30.2384 12.858,30.7194 14.02,31.0284 L15.114,34.6734 C15.114,35.1134 15.469,35.4694 15.909,35.4694 L19.091,35.4694 C19.53,35.4694 19.886,35.1134 19.886,34.6734 L20.98,31.0274 C22.142,30.7184 23.225,30.2374 24.236,29.6434 L27.624,31.4684 C27.935,31.7794 28.439,31.7794 28.75,31.4684 L31,29.2194 C31.31,28.9084 31.31,28.4044 31,28.0934 L29.173,24.7024 C29.765,23.6914 30.244,22.6094 30.554,21.4504 L34.205,20.3554 C34.644,20.3554 35,19.9994 35,19.5594 L35,16.3784 C35,15.9394 34.644,15.5824 34.205,15.5824" id="Fill-3" fill="#4A4A4A"></path>
    </g>
</svg>