<?xml version="1.0" encoding="UTF-8"?>
<svg width="36px" height="36px" viewBox="0 0 36 36" version="1.1" xmlns="http://www.w3.org/2000/svg" xmlns:xlink="http://www.w3.org/1999/xlink">
    <!-- Generator: Sketch 51.3 (57544) - http://www.bohemiancoding.com/sketch -->
    <title>Fill 13</title>
    <desc>Created with Sketch.</desc>
    <defs></defs>
    <g id="Page-1" stroke="none" stroke-width="1" fill="none" fill-rule="evenodd">
        <path d="M18,23.2454 C15.362,23.2454 13.224,21.1074 13.224,18.4694 C13.224,15.8314 15.362,13.6934 18,13.6934 C20.638,13.6934 22.776,15.8314 22.776,18.4694 C22.776,21.1074 20.638,23.2454 18,23.2454 M34.705,16.0824 L31.053,14.9874 C30.744,13.8284 30.264,12.7464 29.673,11.7364 L31.5,8.3454 C31.81,8.0344 31.81,7.5304 31.5,7.2204 L29.25,4.9694 C28.939,4.6594 28.435,4.6594 28.124,4.9694 L24.736,6.7944 C23.725,6.2014 22.642,5.7204 21.48,5.4114 L20.386,1.7644 C20.386,1.3254 20.03,0.9694 19.591,0.9694 L16.409,0.9694 C15.969,0.9694 15.614,1.3254 15.614,1.7644 L14.52,5.4114 C13.358,5.7194 12.275,6.2014 11.264,6.7944 L7.876,4.9694 C7.565,4.6594 7.061,4.6594 6.75,4.9694 L4.5,7.2204 C4.19,7.5304 4.19,8.0344 4.5,8.3454 L6.327,11.7364 C5.736,12.7464 5.256,13.8284 4.947,14.9874 L1.295,16.0824 C0.856,16.0824 0.5,16.4394 0.5,16.8784 L0.5,20.0594 C0.5,20.4994 0.856,20.8554 1.295,20.8554 L4.946,21.9504 C5.256,23.1094 5.735,24.1914 6.327,25.2024 L4.5,28.5934 C4.19,28.9044 4.19,29.4084 4.5,29.7194 L6.75,31.9684 C7.061,32.2794 7.565,32.2794 7.876,31.9684 L11.263,30.1444 C12.274,30.7384 13.358,31.2194 14.52,31.5284 L15.614,35.1734 C15.614,35.6134 15.969,35.9694 16.409,35.9694 L19.591,35.9694 C20.03,35.9694 20.386,35.6134 20.386,35.1734 L21.48,31.5274 C22.642,31.2184 23.725,30.7374 24.736,30.1434 L28.124,31.9684 C28.435,32.2794 28.939,32.2794 29.25,31.9684 L31.5,29.7194 C31.81,29.4084 31.81,28.9044 31.5,28.5934 L29.673,25.2024 C30.265,24.1914 30.744,23.1094 31.054,21.9504 L34.705,20.8554 C35.144,20.8554 35.5,20.4994 35.5,20.0594 L35.5,16.8784 C35.5,16.4394 35.144,16.0824 34.705,16.0824" id="Fill-13" fill="#006BCC"></path>
    </g>
</svg>