<?xml version="1.0" encoding="UTF-8"?>
<svg width="36px" height="47px" viewBox="0 0 36 47" version="1.1" xmlns="http://www.w3.org/2000/svg" xmlns:xlink="http://www.w3.org/1999/xlink">
    <!-- Generator: Sketch 51.3 (57544) - http://www.bohemiancoding.com/sketch -->
    <title>Fill 7</title>
    <desc>Created with Sketch.</desc>
    <defs></defs>
    <g id="Page-1" stroke="none" stroke-width="1" fill="none" fill-rule="evenodd">
        <path d="M33.4414,41.9983 C33.4414,43.1353 32.5194,44.0573 31.3824,44.0573 L4.6174,44.0573 C3.4804,44.0573 2.5584,43.1353 2.5584,41.9983 L2.5584,21.4103 C2.5584,20.2733 3.4804,19.3513 4.6174,19.3513 L31.3824,19.3513 C32.5194,19.3513 33.4414,20.2733 33.4414,21.4103 L33.4414,41.9983 Z M31.3824,17.2923 L29.3214,17.2923 L29.3214,12.1403 C29.3214,5.8893 24.2534,0.8223 18.0004,0.8223 C11.7494,0.8223 6.6814,5.8863 6.6784,12.1353 C6.6784,12.1393 6.6764,12.1423 6.6764,12.1453 C6.6764,12.7143 7.1364,13.1753 7.7064,13.1753 C8.2744,13.1753 8.7354,12.7143 8.7354,12.1453 C8.7354,12.1373 8.7314,12.1303 8.7304,12.1223 C8.7504,7.0203 12.8914,2.8913 18.0004,2.8913 C23.1144,2.8913 27.2614,7.0303 27.2704,12.1413 L27.2714,12.1413 L27.2714,17.2923 L4.6174,17.2923 C2.3434,17.2923 0.5004,19.1363 0.5004,21.4103 L0.5004,41.9983 C0.5004,44.2723 2.3434,46.1163 4.6174,46.1163 L31.3824,46.1163 C33.6564,46.1163 35.5004,44.2723 35.5004,41.9983 L35.5004,21.4103 C35.5004,19.1363 33.6564,17.2923 31.3824,17.2923 Z M18.0004,26.5573 C16.2944,26.5573 14.9114,27.9403 14.9114,29.6453 C14.9114,30.9883 15.7744,32.1193 16.9704,32.5443 L16.9704,35.8223 C16.9704,36.3913 17.4314,36.8513 18.0004,36.8513 C18.5684,36.8513 19.0294,36.3913 19.0294,35.8223 L19.0294,32.5443 C20.2264,32.1193 21.0884,30.9883 21.0884,29.6453 C21.0884,27.9403 19.7064,26.5573 18.0004,26.5573 Z" id="Fill-7" fill="#006BCC"></path>
    </g>
</svg>