<?xml version="1.0" encoding="UTF-8"?>
<svg width="44px" height="41px" viewBox="0 0 44 41" version="1.1" xmlns="http://www.w3.org/2000/svg" xmlns:xlink="http://www.w3.org/1999/xlink">
    <!-- Generator: Sketch 51.3 (57544) - http://www.bohemiancoding.com/sketch -->
    <title>Fill 9</title>
    <desc>Created with Sketch.</desc>
    <defs></defs>
    <g id="Page-1" stroke="none" stroke-width="1" fill="none" fill-rule="evenodd">
        <path d="M23,27.469 C23,27.469 23,28.47 22,28.469 C21,28.469 21,27.469 21,27.469 C21,27.469 20,22.469 20,16.469 C20,15.573 20.896,14.469 22,14.469 C23.104,14.469 24,15.469 24,16.469 C24,22.469 23,27.469 23,27.469 M22,34.469 C20.896,34.469 20,33.573 20,32.469 C20,31.365 20.896,30.469 22,30.469 C23.104,30.469 24,31.365 24,32.469 C24,33.573 23.104,34.469 22,34.469 M43.74,37.5 L43.754,37.492 L23.723,1.43 L23.706,1.44 C23.356,0.861 22.727,0.469 22,0.469 C21.273,0.469 20.645,0.861 20.293,1.44 L20.277,1.43 L0.246,37.492 L0.26,37.5 C0.1,37.789 0,38.115 0,38.469 C0,39.573 0.896,40.469 2,40.469 L42,40.469 C43.104,40.469 44,39.573 44,38.469 C44,38.115 43.9,37.789 43.74,37.5" id="Fill-9" fill="#B12D00"></path>
    </g>
</svg>