<svg id="Layer_1" data-name="Layer 1" xmlns="http://www.w3.org/2000/svg" xmlns:xlink="http://www.w3.org/1999/xlink" viewBox="0 0 1025 792"><defs><style>.cls-1,.cls-13,.cls-14,.cls-16,.cls-4,.cls-6,.cls-8,.cls-9{fill:none;}.cls-2{clip-path:url(#clip-path);}.cls-3{fill:#00000f;}.cls-10,.cls-11,.cls-12,.cls-15,.cls-3,.cls-5,.cls-7{fill-rule:evenodd;}.cls-13,.cls-14,.cls-4{stroke:#00000f;}.cls-13,.cls-14,.cls-4,.cls-6,.cls-8,.cls-9{stroke-miterlimit:3.86;}.cls-4,.cls-6{stroke-width:1.95px;}.cls-5{fill:#003;}.cls-6{stroke:#003;}.cls-7{fill:#e6e7e8;}.cls-8,.cls-9{stroke:#231f20;}.cls-13,.cls-8{stroke-width:0.65px;}.cls-14,.cls-9{stroke-width:0.32px;}.cls-10,.cls-20{fill:#fff;}.cls-11{fill:#a7a9ac;}.cls-12{fill:#d1d3d4;}.cls-15{fill:#58595b;}.cls-16{stroke:#da0000;stroke-width:5px;}.cls-17,.cls-20{font-size:22px;font-family:Helvetica-Bold, Helvetica;font-weight:700;}.cls-17,.cls-22{fill:#da0000;}.cls-18{letter-spacing:0.01em;}.cls-19{letter-spacing:0em;}.cls-21{letter-spacing:-0.01em;}</style><clipPath id="clip-path"><rect class="cls-1" x="-87" width="1224" height="792"/></clipPath></defs><title>Dog_skeleton_selting</title><g class="cls-2"><path class="cls-3" d="M713,361.74c-22.73-23.57-76.25-13.85-83.85,3.9-8.12,18.5-9.17,16.28-11.7,42.9-3.3,36.76,10.74,59,24.68,91.49,16,36.75,26.62,59.57,36.76,95.57,6.08,22.3-2.33,37.2-9.64,59.57-4.7,14.39-8.11,26.62-15.71,35.49-1.78,2.28-4.55,1.81-7.61,2s-4.64-1.11-7.6-.76c-6.33.75-8.59,5.22-13.19,9.63-4.31,4.14-13.43,5.58-9.63,11.91,1.78,3.3,5.73.39,8.87,2,2.92,1.53,3.47,4,6.34,5.58,6,3.39,10.82.59,17.75.76,7.71.18,12.75,3.18,19.77,0a22.84,22.84,0,0,0,13.18-15.21c4.56-14.7,7.78-27.65,13.44-45.12,7.61-23.51,13.56-36.2,21.54-59.58,2.7-7.9,10.15-13.18,6.85-20.28-6.85-13.94-11.94-24.16-17-40.56-2.62-8.48-4.8-14.64-5.62-22.05-1.78-16,.76-21.84,2-35.75,4-47.41,6.34-74.15,10.4-121.55"/><path class="cls-3" d="M354.19,392.94c22.49-6,43.9,3.39,54.6,24.05,7.85,15.15.82,26.7.12,43.74-.86,21-5.4,32.69-5.07,53.75.39,25.29,5.47,39.18,9.63,64.13,1.19,7.12,4.85,11.27,3,18.25-1.42,5.53-5.27,7.23-8.11,12.17a91.35,91.35,0,0,0-8.87,19.52c-5,15.11,2.27,26.18-4.56,40.56a64,64,0,0,1-7.61,12.17c-3.71,5-4.95,9.39-10.65,11.91-7.1,3.16-12-2.08-19.77-2.53-6.61-.38-10.78,2.33-17,0-5-1.86-11.14-2.82-10.91-8.11.2-4.41,5.07-4.68,8.37-7.61,5.08-4.51,7.21-8.16,13.18-11.41,5-2.73,9.66-.77,13.95-4.56,4.95-4.37,4.55-9.35,6.33-15.72,3.47-12.4,2-20.07,2-33,0-14.37-1-22.48-2.53-36.76-4.07-36.88-10.6-61.16-20.74-92.85-10.14-31.94-1.69-54.05,4.55-87.75"/><path class="cls-4" d="M354.19,392.94c22.49-6,43.9,3.39,54.6,24.05,7.85,15.15.82,26.7.12,43.74-.86,21-5.4,32.69-5.07,53.75.39,25.29,5.47,39.18,9.63,64.13,1.19,7.12,4.85,11.27,3,18.25-1.42,5.53-5.27,7.23-8.11,12.17a91.35,91.35,0,0,0-8.87,19.52c-5,15.11,2.27,26.18-4.56,40.56a64,64,0,0,1-7.61,12.17c-3.71,5-4.95,9.39-10.65,11.91-7.1,3.16-12-2.08-19.77-2.53-6.61-.38-10.78,2.33-17,0-5-1.86-11.14-2.82-10.91-8.11.2-4.41,5.07-4.68,8.37-7.61,5.08-4.51,7.21-8.16,13.18-11.41,5-2.73,9.66-.77,13.95-4.56,4.95-4.37,4.55-9.35,6.33-15.72,3.47-12.4,2-20.07,2-33,0-14.37-1-22.48-2.53-36.76-4.07-36.88-10.6-61.16-20.74-92.85C339.5,448.75,348,426.64,354.19,392.94Z"/><path class="cls-5" d="M800.1,279.19c4.56,7.1,29.89,7.86,49.4,7.8,22.83-.07,52.43-8.95,57.5-11.06,5.34-2.22,42.4-17.61,54.3-27.94,19.71-17.13,51.46-38.88,50.7-44.2-1.46-7.76-40.76,14.81-55.9,22.1-14.53,7-50.61,18.53-78,22.1-29.9,3.9-33.8,2.6-48.1,0-18-3.28-37.52-6-53.15-15.61-24.17-14.85-39.49-21.7-67.17-27.89-16.81-3.76-26.67-4.07-43.86-5.07-31.62-1.85-49.53,1.57-81.12,3.8-29.71,2.1-46.26,7.25-76.05,7.1-19-.09-29.76-1.26-48.67-3.3-18.18-2-28.53-2.91-46.39-6.84-24.89-5.47-38.75-10.11-62.11-20.28-17.25-7.51-24.18-18.77-42.79-22.26-10.4-1.95-29.28-34.62-50.25-54.55-9.89-9.41-15.61-14.59-26.11-23.32C219.41,69,213.57,60.12,198,53.69c-11.35-4.7-18.58-6.89-30.86-6.37-6,.25-9.37,1.09-15.21,2.53-6.49,1.62-9.87,3.49-16.22,5.58-8.94,3-15,2.19-23.07,7.1-6.74,4.12-10.83,7.06-14.7,13.94-2.24,4-1.57,7.09-3.87,11-6.34,10.8-16.78,10.25-28.33,15.09-10.69,4.48-18,3.85-28.3,9.08-3.87,2-6.77,2.32-9.63,5.58-2.08,2.36-3.59,4-3.8,7.1-.19,2.78.9,4.3,2,6.84,1.44,3.26,3.36,4.48,5.07,7.61,2.7,4.91,2.61,8.41,5.07,13.43,2.13,4.34,2.62,7.57,6.34,10.65,4.71,3.9,9.14,3.06,15.21,3.8,7.72,1,12.16-.81,19.94-.71,8.22.09,12.82,1.37,21,1.27,9.64-.13,15-1.48,24.59-2.54,6.73-.74,10.47-2.23,17.24-2,6,.18,9.56.47,15.21,2.54,12.47,4.57,15.7,13.78,24.08,24.08,11.5,14.14,15.45,24,24.08,40.05,9.57,17.8,15.21,27.88,22.06,46.9,3.84,10.68,7,16.62,8.36,27.88.75,6.09-.18,9.63.51,15.72,1.46,13,4.8,19.94,9.38,32.2,4.41,11.81,7,18.56,13.43,29.4,5.43,9.14,10.28,13.09,16,22.06,5.46,8.59,9.18,13.25,12.68,22.81,4,10.84,3.84,17.68,5.07,29.16,1.8,16.71.16,26.29.51,43.09.49,23.73,2,37.12,1.26,60.84-1,33.78-3.29,54.25-8.87,86.19-2,11.66-6.59,23.32-12.67,31.69-4.06,5.58-10.37,6.45-17.54,9.47-6,2.54-11,1-15.93,5.23s-8,9.09-7.47,14.92c.26,4.56,4.43,3.33,9,4.35,3.54.76,6.84,1.77,10.39,2.28,7.1,1.27,6.89,5.21,12.46,5.72,4.06.51,13.65-3.19,20-4.45,5.32-1,6.84-5.58,9.38-9.64,4.31-6.84,2-13.34,4.56-21.54,3.54-11.41,7.23-17.26,12.67-27.89,5.64-11,12.05-17.7,15.8-27.48,2.56-6.66,9.61-6.81,11.81-13.42,2-6.11-.76-12.93-.76-16.48-.25-14.2-3.27-11.82-1.5-26.78,4.31-32.7,7.86-51.46,13.95-84.42,2.53-14.95,7.1-25.35,11.41-37.26,3.54-9.63,6.84-19.27,14.44-30.42,2-3,4.57-8.37,8.37-8.37,16.22-.25,34.07,2.79,55.77,1.27,24-1.68,37.39-5.16,60.84-10.65,32.55-7.61,49.62-16.5,81.63-26.11,17.74-5.32,27.25-10.91,45.63-13.18,15.7-1.93,25.82-5.23,40.56.51,6.15,2.39,10.15,3.59,14.7,8.36,6.2,6.5,7.61,12.93,8.11,21.55,1.78,28.39.4,44.7,8.88,71.49s18.75,40.05,33.71,63.37c11.41,17.75,18.51,28.65,33,43.86,12.42,13.18,25.34,16.07,36.75,30.93,10.11,13.14,16.23,29.66,19,38,6.84,20.79,6.08,34.22,6.08,55.52,0,8.87,1.78,16.22-4.31,22.56-4,4.31-10.14,3.55-15.72,6.34-3.29,1.52-5.57,5.57-8.61,7.6-4.57,3-9.38,4.31-11.16,6.85-2.28,3,1.52,7.85,4.56,10.14,2.29,1.77,7.1-.26,10.4.5,3.55.76,5.57,4.82,9.88,5.33,11.67,1,22.82,3.55,30.93-5.07,4.82-5.07,13.18-11.16,13.44-20.28.5-10.4-.61-19.8-1.27-32.45-1-18.51-3.15-28.87-3.3-47.41-.17-22.29,2-35,3.81-57,.25-4.57-4.12-10.79-7.43-13-14.3-9.43-37.4-20-49.61-42.3S788.65,498.61,790,473.2c1-17.58,4.7-27.14,8.36-44.36,5.55-26.11,13.39-39.91,16.48-66.42,1.52-13.08,3-20.6,1.77-33.72-1.9-20.27-21.62-57.12-16.55-49.51"/><path class="cls-6" d="M800.1,279.19c4.56,7.1,29.89,7.86,49.4,7.8,22.83-.07,52.43-8.95,57.5-11.06,5.34-2.22,42.4-17.61,54.3-27.94,19.71-17.13,51.46-38.88,50.7-44.2-1.46-7.76-40.76,14.81-55.9,22.1-14.53,7-50.61,18.53-78,22.1-29.9,3.9-33.8,2.6-48.1,0-18-3.28-37.52-6-53.15-15.61-24.17-14.85-39.49-21.7-67.17-27.89-16.81-3.76-26.67-4.07-43.86-5.07-31.62-1.85-49.53,1.57-81.12,3.8-29.71,2.1-46.26,7.25-76.05,7.1-19-.09-29.76-1.26-48.67-3.3-18.18-2-28.53-2.91-46.39-6.84-24.89-5.47-38.75-10.11-62.11-20.28-17.25-7.51-24.18-18.77-42.79-22.26-10.4-1.95-29.28-34.62-50.25-54.55-9.89-9.41-15.61-14.59-26.11-23.32C219.41,69,213.57,60.12,198,53.69c-11.35-4.7-18.58-6.89-30.86-6.37-6,.25-9.37,1.09-15.21,2.53-6.49,1.62-9.87,3.49-16.22,5.58-8.94,3-15,2.19-23.07,7.1-6.74,4.12-10.83,7.06-14.7,13.94-2.24,4-1.57,7.09-3.87,11-6.34,10.8-16.78,10.25-28.33,15.09-10.69,4.48-18,3.85-28.3,9.08-3.87,2-6.77,2.32-9.63,5.58-2.08,2.36-3.59,4-3.8,7.1-.19,2.78.9,4.3,2,6.84,1.44,3.26,3.36,4.48,5.07,7.61,2.7,4.91,2.61,8.41,5.07,13.43,2.13,4.34,2.62,7.57,6.34,10.65,4.71,3.9,9.14,3.06,15.21,3.8,7.72,1,12.16-.81,19.94-.71,8.22.09,12.82,1.37,21,1.27,9.64-.13,15-1.48,24.59-2.54,6.73-.74,10.47-2.23,17.24-2,6,.18,9.56.47,15.21,2.54,12.47,4.57,15.7,13.78,24.08,24.08,11.5,14.14,15.45,24,24.08,40.05,9.57,17.8,15.21,27.88,22.06,46.9,3.84,10.68,7,16.62,8.36,27.88.75,6.09-.18,9.63.51,15.72,1.46,13,4.8,19.94,9.38,32.2,4.41,11.81,7,18.56,13.43,29.4,5.43,9.14,10.28,13.09,16,22.06,5.46,8.59,9.18,13.25,12.68,22.81,4,10.84,3.84,17.68,5.07,29.16,1.8,16.71.16,26.29.51,43.09.49,23.73,2,37.12,1.26,60.84-1,33.78-3.29,54.25-8.87,86.19-2,11.66-6.59,23.32-12.67,31.69-4.06,5.58-10.37,6.45-17.54,9.47-6,2.54-11,1-15.93,5.23s-8,9.09-7.47,14.92c.26,4.56,4.43,3.33,9,4.35,3.54.76,6.84,1.77,10.39,2.28,7.1,1.27,6.89,5.21,12.46,5.72,4.06.51,13.65-3.19,20-4.45,5.32-1,6.84-5.58,9.38-9.64,4.31-6.84,2-13.34,4.56-21.54,3.54-11.41,7.23-17.26,12.67-27.89,5.64-11,12.05-17.7,15.8-27.48,2.56-6.66,9.61-6.81,11.81-13.42,2-6.11-.76-12.93-.76-16.48-.25-14.2-3.27-11.82-1.5-26.78,4.31-32.7,7.86-51.46,13.95-84.42,2.53-14.95,7.1-25.35,11.41-37.26,3.54-9.63,6.84-19.27,14.44-30.42,2-3,4.57-8.37,8.37-8.37,16.22-.25,34.07,2.79,55.77,1.27,24-1.68,37.39-5.16,60.84-10.65,32.55-7.61,49.62-16.5,81.63-26.11,17.74-5.32,27.25-10.91,45.63-13.18,15.7-1.93,25.82-5.23,40.56.51,6.15,2.39,10.15,3.59,14.7,8.36,6.2,6.5,7.61,12.93,8.11,21.55,1.78,28.39.4,44.7,8.88,71.49s18.75,40.05,33.71,63.37c11.41,17.75,18.51,28.65,33,43.86,12.42,13.18,25.34,16.07,36.75,30.93,10.11,13.14,16.23,29.66,19,38,6.84,20.79,6.08,34.22,6.08,55.52,0,8.87,1.78,16.22-4.31,22.56-4,4.31-10.14,3.55-15.72,6.34-3.29,1.52-5.57,5.57-8.61,7.6-4.57,3-9.38,4.31-11.16,6.85-2.28,3,1.52,7.85,4.56,10.14,2.29,1.77,7.1-.26,10.4.5,3.55.76,5.57,4.82,9.88,5.33,11.67,1,22.82,3.55,30.93-5.07,4.82-5.07,13.18-11.16,13.44-20.28.5-10.4-.61-19.8-1.27-32.45-1-18.51-3.15-28.87-3.3-47.41-.17-22.29,2-35,3.81-57,.25-4.57-4.12-10.79-7.43-13-14.3-9.43-37.4-20-49.61-42.3S788.65,498.61,790,473.2c1-17.58,4.7-27.14,8.36-44.36,5.55-26.11,13.39-39.91,16.48-66.42,1.52-13.08,3-20.6,1.77-33.72C814.75,308.43,795,271.58,800.1,279.19Z"/><path class="cls-7" d="M313.81,619.16s-.29-2.74-1.54-3.6c-1.57-1.07-6.24,1.18-8.13,2.14-3.16,1.62-.7,3.46-2.27,6.64-2.91,5.88-8.14,15.59-12.35,26-2.82,7-2.59,11.72-6.52,18.11-1.71,2.79-3.56,3.79-5,6.72-1.16,2.32-2.76,3.78-2.13,6.28,1.12,4.44,8.08,2.21,11.72-.56s2.1-6.82,3.56-11.14c2.58-7.65,4.09-14,7-19.5,5.38-10.31,7.35-10.77,11.29-18.25,2-3.71,5.47-7,4.41-12.84"/><path class="cls-8" d="M313.81,619.16s-.29-2.74-1.54-3.6c-1.57-1.07-6.24,1.18-8.13,2.14-3.16,1.62-.7,3.46-2.27,6.64-2.91,5.88-8.14,15.59-12.35,26-2.82,7-2.59,11.72-6.52,18.11-1.71,2.79-3.56,3.79-5,6.72-1.16,2.32-2.76,3.78-2.13,6.28,1.12,4.44,8.08,2.21,11.72-.56s2.1-6.82,3.56-11.14c2.58-7.65,4.09-14,7-19.5,5.38-10.31,7.35-10.77,11.29-18.25C311.36,628.29,314.87,625,313.81,619.16Z"/><path class="cls-7" d="M836.17,624.34c-2.6,5.85-7,.36-9.1,3.57-1.91,3-.21,5.56,0,9.1.39,6.56,2.26,10,2.93,16.58.54,5.3.38,8.33.65,13.65.76,15.46,5.53,24.59,2,39.65-.8,3.35-2.57,5-2.6,8.45,0,2.58-.73,4.89,1.3,6.5,2.19,1.74,4.48.21,7.14-.65,10.93-3.53,3.17-17.77,3.25-29.25.1-12.88-3.23-20-3.57-32.83-.22-8.36,1-13,.65-21.45-.16-4.19-.74-17.5-2.6-13.32"/><path class="cls-8" d="M836.17,624.34c-2.6,5.85-7,.36-9.1,3.57-1.91,3-.21,5.56,0,9.1.39,6.56,2.26,10,2.93,16.58.54,5.3.38,8.33.65,13.65.76,15.46,5.53,24.59,2,39.65-.8,3.35-2.57,5-2.6,8.45,0,2.58-.73,4.89,1.3,6.5,2.19,1.74,4.48.21,7.14-.65,10.93-3.53,3.17-17.77,3.25-29.25.1-12.88-3.23-20-3.57-32.83-.22-8.36,1-13,.65-21.45C838.61,633.47,838,620.16,836.17,624.34Z"/><path class="cls-7" d="M820.9,614.26c.24,2.83,2,3.94,3.25,6.5,2.11,4.47.72,9,4.87,11.7a10.1,10.1,0,0,0,3.9,1.63c9.55,2.1,11.9-18.65,4.23-24.7-4.42-3.49-10.71-6.28-14.3-1.95a8.33,8.33,0,0,0-2,6.82"/><path class="cls-8" d="M820.9,614.26c.24,2.83,2,3.94,3.25,6.5,2.11,4.47.72,9,4.87,11.7a10.1,10.1,0,0,0,3.9,1.63c9.55,2.1,11.9-18.65,4.23-24.7-4.42-3.49-10.71-6.28-14.3-1.95A8.33,8.33,0,0,0,820.9,614.26Z"/><path class="cls-7" d="M741.27,452.09c-2.69-3.72-2.9-9.86,1.3-11.7,2.85-1.25,5.23-.12,7.8,1.62,3.82,2.6,6.64,7.12,4.23,11.05-2.73,4.44-10.27,3.25-13.33-1"/><path class="cls-9" d="M741.27,452.09c-2.69-3.72-2.9-9.86,1.3-11.7,2.85-1.25,5.23-.12,7.8,1.62,3.82,2.6,6.64,7.12,4.23,11.05C751.87,457.5,744.33,456.31,741.27,452.09Z"/><path class="cls-7" d="M714.62,278.86c-1.44,5.19,3.7,7.57,6.18,12.35,2.58,5,4.21,7.71,6.82,12.68,1.53,2.91,1.39,5.35,3.9,7.47,4.66,3.95,11,2.77,15.6-1.3,5.4-4.81,3.88-11.9,1-18.52-2.75-6.26-7.06-8.66-13.33-11.38-7.22-3.13-18-8.89-20.15-1.3"/><path class="cls-8" d="M714.62,278.86c-1.44,5.19,3.7,7.57,6.18,12.35,2.58,5,4.21,7.71,6.82,12.68,1.53,2.91,1.39,5.35,3.9,7.47,4.66,3.95,11,2.77,15.6-1.3,5.4-4.81,3.88-11.9,1-18.52-2.75-6.26-7.06-8.66-13.33-11.38C727.55,277,716.72,271.27,714.62,278.86Z"/><path class="cls-7" d="M351.76,205.74c3.93-3.25,7-10.4,9.91-10.4,2.06,0,3,1.75,5,2.6,3.32,1.37,8.71.95,8.93,2.27.33,1.95-2.22,6.47-5.2,9.43C368,212,366,212.56,363,214.19a137,137,0,0,1-14.79,6.34c2.3-.58,14-2.77,21.61-7.32,6.49-3.86,11.7-13,14.63-12.67,2.68.3,2.57,4,5.2,4.55,1.87.43,3.52-2,4.87-.65,2.6,2.6-2.07,8.28-9.75,14-3.8,2.82-11,8.8-9.1,9.43s11.72-5.15,15.6-8.29c4.23-3.41,4.93-10.68,8.62-12.67,2-1.11,2,1.6,4.22,1.94,1.93.31,6.11-1.92,6.83,0,.61,1.67.12,2.79,0,4.56-.21,2.82-2.57,6.91-5.69,9.91-5,4.83-11.48,8.13-10.08,8.45,1.56.34,8.52-1.29,14.3-6,5.09-4.16,8.91-11.34,12.35-13,2.48-1.2,1.94,3.34,4.23,3.25,1.33-.06,3.62-2.62,4.87-1.63,2.71,2.13-.32,9.1-3.25,12-4.42,4.42-11.33,9.87-9.58,10.4,1.92.57,6.43-1.12,12.35-4.72,3.73-2.27,8.61-12.67,10.88-12.67,1.87,0,2.07,2.14,3.58,2.27,1.16.1,3.72-2.49,4.87-1.62,1.95,1.46-2.68,11-7.47,14.62-2.53,1.94-4.84,4.46-3.25,5.37,2.86,1.63,4.36-.29,6.34-2.93a16.16,16.16,0,0,0,5.2-6.18c1.45-3.4,3.19-6.76,5.85-8.44,1.52-1,2.74.85,4.22.65,1.27-.18,2.79-2.51,4.23-1.95,4,1.54-1.89,7-3.25,11-1.14,3.41-7.4,5.88-4.72,8.61,2.37,2.41,5.3-.72,8.45-2s6.91-1.15,7.8-4.55-5.06-4.45-4.22-7.8c1-3.9,9.78-4.8,13.32-1,2.46,2.65-.18,6,1.63,9.1a12.88,12.88,0,0,0,3.12,3.66c1,.81,2.17-.68,2.4-3.66s-2.72-6.53-2.6-7.8c.33-3.25,10.08-3.9,13-.65,1,1.14,4.5,12.78,5.4,11.91,1.05-1,3.52-1.88,4.35-3.13,1.13-1.69-1.64-10,.33-11.38,3.52-2.49,7.74-3.64,11.7-2,3.34,1.43.14,9,4.22,11.38,1.92,1.11,3.81,3.71,5.53,1.3,3.25-4.55-4.2-8.3-1.3-12,2.27-2.92,8.51-7.35,12.67-4.22,1.3,1-1.78,15.41,4.55,15.6,2.41.07,5.19.36,5.85-1.95,1.3-4.55-6-8.12-3.25-13,1.63-2.93,9.7-8,13-3.9,1.3,1.62-1.25,13.82,4.88,16.9,2.2,1.1,3.74,1.65,6.17,1.3,7.07-1-6.81-11.07-3.9-17.88,1-2.27,11.59-4.19,13.65-1.3,1.63,2.28-1.07,12.62,4.55,14.63,2.39.85,4.19,1,6.5,0,5.4-2.43-7.86-11.66-2.6-15,2.6-1.63,11.95-6,14-1,.65,1.63-1.49,13,4.22,14.63,3.56,1,6.78.26,9.11-2.6,3.08-3.81-5.51-8.32-2.28-12.35,1.3-1.63,13-6.09,16.25-.65,1,1.62-.1,13.39,5.53,13.32,2.54,0,4.1-1.06,5.84-2.92,2.33-2.5-.78-3.87,2.28-8.45,2-2.93,11.26-2.48,14.3-.65,0,0,8,5,9.42,9.1,5.87,17.24,28.39,5.87,46,10.56,5,1.32,7.48,0,13.49,1.14,4.07.77,3.31,4.85,8.29,6.66,3.65,1.33,9.41-.18,12.35.65,5.2,1.46,5.37,5.72,8.29,7,3.73,1.62,3.51-.57,9.75-.81,4.06-.17,5.44,5,9.75,6.66,5.05,1.92,8.76-.66,13.81,1.3,3.23,1.25,4.34,3.48,7.64,4.55,5.07,1.63,8.38-1.44,13.65-.65s7.51,4.12,12.8,4.55c6,.49,8.29-1.46,14.33-1.46,4.63,0,8.07,1.71,12.68,2.11,3,.25,5.29-1.67,7.66-1.77,3.23-.13,8.1,2.26,10.21,1.93,2.57-.4,5-2.6,8.29-3.25,4.17-.83,5.92,1.22,10.08.33,2.49-.54,5.65-3,9.42-4.23,4.51-1.43,9.67-1.59,12.68-2.11a59,59,0,0,0,12.47-3.6c3.53-1.45,8.42-.81,11.9-2.58s6.84-4.46,11.05-6.17c8.11-3.3,11.3-5.92,19.18-9.75,10.94-5.33,19.5-12.51,20.47-11.54,0,0-20.91,20.09-37.7,26.49-4.46,1.7-7.39,1.52-11.7,3.57s-5.65,5.11-10.07,6.83c-5.69,2.21-9.79-.55-15.6,1.3-4.65,1.47-6.3,4.77-11,5.85-4,.89-6.43-.82-10.41,0-3.4.7-4.87,2.61-8.28,3.25-3.93.74-8.29-.49-10.24-.33-3.52.3-5.69,2.44-8.77,2.28-5.12-.27-6.34-1.95-9.43-1.79-4.65.25-7.67,1.61-12.19,2.76s-3.92,1.45-7.51,1.1c-3.82-.38-4.07-3.28-8.9-3.53-4-.21-10.84,1.77-14,1.58-4.47-.25-5.43-3.86-11-4.67-3-.43-8.72,2.47-11.08,2.07-3.72-.62-4.53-3.95-9.08-5.32-3.66-1.11-9.05.16-11.75-1.2a60.84,60.84,0,0,0-11-4.65c-6-1.74-5.54,1.42-10.4.65-4.06-.65-4.73-5.53-8-6.5-3.41-1-7.16,2.33-9.59,1.95-8.89-1.4-14-1.6-22.75-3.9-6.2-1.64-9.19-5-15.59-5.2-7.42-.25-10.79,5.57-18.21,5.52-5.59,0-8.37-3.21-14-3.25-7.86-.05-11.75,3.6-19.18,6.18-6.89,2.39-3.25,7.15-17.55,6.5-10.31-.47,6.61-5.29,8.45-10.08.8-2.06,2.12-3.46,1.3-5.52-1.33-3.37-4.4,3.59-7.47,5.52-8.82,5.56-17.55,11.38-25,9.43-8.32-2.17,13.94-13.69,7.8-13.65-2.44,0-3.64,1.21-5.85,2.27-4.12,2-5.65,4.47-9.75,6.5-7.9,3.93,1.63,4.88-22.1,4.88-9.3,0,7.16-7.27,3.9-9.75-2.45-1.87-4.79.6-7.8,1.3-10.71,2.47-5.31,12.35-25.35,12.35-13.65,0,2.32-4.69,1.95-7.8-1-8.61-13,7.15-27.3,8.77-10.67,1.22,1.4-9.54-1.62-9.1-5.42.79-12.5,9.1-17.53,9.42-3.82.24-7.73.43-12,.73-2.26.16,1.87-5.18-.66-4.95-3.42.32-13,6.19-15.92,6.52-10,1.17-19.71-2.26-31.53-2.29-33.85-.1-50.6-3.18-83.2-12.35-10.72-3-20.31.23-27.3-8.45-5.24-6.52-7-12.63-5.2-20.8.42-1.91,20.6-36.07,21.94-35.27.94-1.51,3.4,2.24,6.5,3.91,1.82,1,4.49,1.32,5,3.08,1.4,4.5-2.47,7.89-5.85,10.57-.9,1.62-9.46,6.81-7.8,6.17-2.05,1.62,10.37-3.21,12.19-4.71"/><path class="cls-8" d="M351.76,205.74c3.93-3.25,7-10.4,9.91-10.4,2.06,0,3,1.75,5,2.6,3.32,1.37,8.71.95,8.93,2.27.33,1.95-2.22,6.47-5.2,9.43C368,212,366,212.56,363,214.19a137,137,0,0,1-14.79,6.34c2.3-.58,14-2.77,21.61-7.32,6.49-3.86,11.7-13,14.63-12.67,2.68.3,2.57,4,5.2,4.55,1.87.43,3.52-2,4.87-.65,2.6,2.6-2.07,8.28-9.75,14-3.8,2.82-11,8.8-9.1,9.43s11.72-5.15,15.6-8.29c4.23-3.41,4.93-10.68,8.62-12.67,2-1.11,2,1.6,4.22,1.94,1.93.31,6.11-1.92,6.83,0,.61,1.67.12,2.79,0,4.56-.21,2.82-2.57,6.91-5.69,9.91-5,4.83-11.48,8.13-10.08,8.45,1.56.34,8.52-1.29,14.3-6,5.09-4.16,8.91-11.34,12.35-13,2.48-1.2,1.94,3.34,4.23,3.25,1.33-.06,3.62-2.62,4.87-1.63,2.71,2.13-.32,9.1-3.25,12-4.42,4.42-11.33,9.87-9.58,10.4,1.92.57,6.43-1.12,12.35-4.72,3.73-2.27,8.61-12.67,10.88-12.67,1.87,0,2.07,2.14,3.58,2.27,1.16.1,3.72-2.49,4.87-1.62,1.95,1.46-2.68,11-7.47,14.62-2.53,1.94-4.84,4.46-3.25,5.37,2.86,1.63,4.36-.29,6.34-2.93a16.16,16.16,0,0,0,5.2-6.18c1.45-3.4,3.19-6.76,5.85-8.44,1.52-1,2.74.85,4.22.65,1.27-.18,2.79-2.51,4.23-1.95,4,1.54-1.89,7-3.25,11-1.14,3.41-7.4,5.88-4.72,8.61,2.37,2.41,5.3-.72,8.45-2s6.91-1.15,7.8-4.55-5.06-4.45-4.22-7.8c1-3.9,9.78-4.8,13.32-1,2.46,2.65-.18,6,1.63,9.1a12.88,12.88,0,0,0,3.12,3.66c1,.81,2.17-.68,2.4-3.66s-2.72-6.53-2.6-7.8c.33-3.25,10.08-3.9,13-.65,1,1.14,4.5,12.78,5.4,11.91,1.05-1,3.52-1.88,4.35-3.13,1.13-1.69-1.64-10,.33-11.38,3.52-2.49,7.74-3.64,11.7-2,3.34,1.43.14,9,4.22,11.38,1.92,1.11,3.81,3.71,5.53,1.3,3.25-4.55-4.2-8.3-1.3-12,2.27-2.92,8.51-7.35,12.67-4.22,1.3,1-1.78,15.41,4.55,15.6,2.41.07,5.19.36,5.85-1.95,1.3-4.55-6-8.12-3.25-13,1.63-2.93,9.7-8,13-3.9,1.3,1.62-1.25,13.82,4.88,16.9,2.2,1.1,3.74,1.65,6.17,1.3,7.07-1-6.81-11.07-3.9-17.88,1-2.27,11.59-4.19,13.65-1.3,1.63,2.28-1.07,12.62,4.55,14.63,2.39.85,4.19,1,6.5,0,5.4-2.43-7.86-11.66-2.6-15,2.6-1.63,11.95-6,14-1,.65,1.63-1.49,13,4.22,14.63,3.56,1,6.78.26,9.11-2.6,3.08-3.81-5.51-8.32-2.28-12.35,1.3-1.63,13-6.09,16.25-.65,1,1.62-.1,13.39,5.53,13.32,2.54,0,4.1-1.06,5.84-2.92,2.33-2.5-.78-3.87,2.28-8.45,2-2.93,11.26-2.48,14.3-.65,0,0,8,5,9.42,9.1,5.87,17.24,28.39,5.87,46,10.56,5,1.32,7.48,0,13.49,1.14,4.07.77,3.31,4.85,8.29,6.66,3.65,1.33,9.41-.18,12.35.65,5.2,1.46,5.37,5.72,8.29,7,3.73,1.62,3.51-.57,9.75-.81,4.06-.17,5.44,5,9.75,6.66,5.05,1.92,8.76-.66,13.81,1.3,3.23,1.25,4.34,3.48,7.64,4.55,5.07,1.63,8.38-1.44,13.65-.65s7.51,4.12,12.8,4.55c6,.49,8.29-1.46,14.33-1.46,4.63,0,8.07,1.71,12.68,2.11,3,.25,5.29-1.67,7.66-1.77,3.23-.13,8.1,2.26,10.21,1.93,2.57-.4,5-2.6,8.29-3.25,4.17-.83,5.92,1.22,10.08.33,2.49-.54,5.65-3,9.42-4.23,4.51-1.43,9.67-1.59,12.68-2.11a59,59,0,0,0,12.47-3.6c3.53-1.45,8.42-.81,11.9-2.58s6.84-4.46,11.05-6.17c8.11-3.3,11.3-5.92,19.18-9.75,10.94-5.33,19.5-12.51,20.47-11.54,0,0-20.91,20.09-37.7,26.49-4.46,1.7-7.39,1.52-11.7,3.57s-5.65,5.11-10.07,6.83c-5.69,2.21-9.79-.55-15.6,1.3-4.65,1.47-6.3,4.77-11,5.85-4,.89-6.43-.82-10.41,0-3.4.7-4.87,2.61-8.28,3.25-3.93.74-8.29-.49-10.24-.33-3.52.3-5.69,2.44-8.77,2.28-5.12-.27-6.34-1.95-9.43-1.79-4.65.25-7.67,1.61-12.19,2.76s-3.92,1.45-7.51,1.1c-3.82-.38-4.07-3.28-8.9-3.53-4-.21-10.84,1.77-14,1.58-4.47-.25-5.43-3.86-11-4.67-3-.43-8.72,2.47-11.08,2.07-3.72-.62-4.53-3.95-9.08-5.32-3.66-1.11-9.05.16-11.75-1.2a60.84,60.84,0,0,0-11-4.65c-6-1.74-5.54,1.42-10.4.65-4.06-.65-4.73-5.53-8-6.5-3.41-1-7.16,2.33-9.59,1.95-8.89-1.4-14-1.6-22.75-3.9-6.2-1.64-9.19-5-15.59-5.2-7.42-.25-10.79,5.57-18.21,5.52-5.59,0-8.37-3.21-14-3.25-7.86-.05-11.75,3.6-19.18,6.18-6.89,2.39-3.25,7.15-17.55,6.5-10.31-.47,6.61-5.29,8.45-10.08.8-2.06,2.12-3.46,1.3-5.52-1.33-3.37-4.4,3.59-7.47,5.52-8.82,5.56-17.55,11.38-25,9.43-8.32-2.17,13.94-13.69,7.8-13.65-2.44,0-3.64,1.21-5.85,2.27-4.12,2-5.65,4.47-9.75,6.5-7.9,3.93,1.63,4.88-22.1,4.88-9.3,0,7.16-7.27,3.9-9.75-2.45-1.87-4.79.6-7.8,1.3-10.71,2.47-5.31,12.35-25.35,12.35-13.65,0,2.32-4.69,1.95-7.8-1-8.61-13,7.15-27.3,8.77-10.67,1.22,1.4-9.54-1.62-9.1-5.42.79-12.5,9.1-17.53,9.42-3.82.24-7.73.43-12,.73-2.26.16,1.87-5.18-.66-4.95-3.42.32-13,6.19-15.92,6.52-10,1.17-19.71-2.26-31.53-2.29-33.85-.1-50.6-3.18-83.2-12.35-10.72-3-20.31.23-27.3-8.45-5.24-6.52-7-12.63-5.2-20.8.42-1.91,20.6-36.07,21.94-35.27.94-1.51,3.4,2.24,6.5,3.91,1.82,1,4.49,1.32,5,3.08,1.4,4.5-2.47,7.89-5.85,10.57-.9,1.62-9.46,6.81-7.8,6.17C337.52,212.07,349.94,207.24,351.76,205.74Z"/><path class="cls-7" d="M280.9,200.77c-6.88-1.29.06-21.49-4.41-27-1.36-1.7-4.85,6.54-6.33,5.35a14.21,14.21,0,0,1-2.9-2.71c-4.39-5.37,4.33-14.49-.45-17.78-3.51-2.42-4.76,7.34-8.35,5.71a7,7,0,0,1-2.63-2.33c-4.33-5.06,2.75-15.23.1-17.06-2.39-1.65-7.26,2-10.07-.76-1.94-1.9-2.36-6.56-2.36-6.56s3-10,.84-11.31c-2.81-1.71-4.21-1.1-6.5-2.6a16.1,16.1,0,0,1-3.73-3.25,21.13,21.13,0,0,1-3.42-5.53c-1.38-2.83.13-6.06-2.6-7.64-1.54-.89-2.73-.6-4.51-.7-1.54-.09-2.46.48-4,.1-3.65-.93-2.51-5.61-5.44-8-2.18-1.77-3.68-3.72-6.44-3.2-2.39.44-2.92,2.46-4.54,4.28-2.45,2.75-5.29,4.1-5.36,7.78-.05,2.44.95,3.75,2.13,5.88,2.4,4.33,2.49,7.59,6,11.07,3.33,3.28,7.6,2.64,10.24,6.5a41.2,41.2,0,0,1,3.58,5.69c1.88,4.38,3.1,7.6,5.61,12.81,1.31,2.71,6.41,6.36,5.92,7.34s1,5.85,3.5,9.73c2.09,3.33,7.23,5.7,6.74,7.65-.29,1.15,7.64,10.32,12.15,16,1.11,1.39,4.91,2.57,4.43,3.54s2.2,8.08,3.42,11.49c1.4,4,3.13,7.05,7.55,6.88,6.36-.25,16.88-10.35,11.77-11.31"/><path class="cls-8" d="M280.9,200.77c-6.88-1.29.06-21.49-4.41-27-1.36-1.7-4.85,6.54-6.33,5.35a14.21,14.21,0,0,1-2.9-2.71c-4.39-5.37,4.33-14.49-.45-17.78-3.51-2.42-4.76,7.34-8.35,5.71a7,7,0,0,1-2.63-2.33c-4.33-5.06,2.75-15.23.1-17.06-2.39-1.65-7.26,2-10.07-.76-1.94-1.9-2.36-6.56-2.36-6.56s3-10,.84-11.31c-2.81-1.71-4.21-1.1-6.5-2.6a16.1,16.1,0,0,1-3.73-3.25,21.13,21.13,0,0,1-3.42-5.53c-1.38-2.83.13-6.06-2.6-7.64-1.54-.89-2.73-.6-4.51-.7-1.54-.09-2.46.48-4,.1-3.65-.93-2.51-5.61-5.44-8-2.18-1.77-3.68-3.72-6.44-3.2-2.39.44-2.92,2.46-4.54,4.28-2.45,2.75-5.29,4.1-5.36,7.78-.05,2.44.95,3.75,2.13,5.88,2.4,4.33,2.49,7.59,6,11.07,3.33,3.28,7.6,2.64,10.24,6.5a41.2,41.2,0,0,1,3.58,5.69c1.88,4.38,3.1,7.6,5.61,12.81,1.31,2.71,6.41,6.36,5.92,7.34s1,5.85,3.5,9.73c2.09,3.33,7.23,5.7,6.74,7.65-.29,1.15,7.64,10.32,12.15,16,1.11,1.39,4.91,2.57,4.43,3.54s2.2,8.08,3.42,11.49c1.4,4,3.13,7.05,7.55,6.88C275.49,211.83,286,201.73,280.9,200.77Z"/><path class="cls-10" d="M724.76,222.35c2.49,3.4,2,8.08,4.18,10,5.72,5,4.07,3.24,6.25,5.72,6,6.87,6.34,12.85,9.42,21.46,2.47,6.94,5,19.81,9.66,25.53,4.22,5.2,8.28,3.91,16.54,6.28,7.72,2.22,9.5,6.19,15.64,13.22,2.85,3.28,5.3,9,7.79,12.35,3.07,4.16,12.13,4.06,11.64,6.89-.82,4.66-12.63,1.64-20.75,1.62-14.21,0-22.66-.37-36.07-5-5.17-1.8-9.41-.55-12.88-5.57-1.49-2.16-5.7-20.37-13.71-30.8-8.56-11.16-10-14.31-28.43-22.18-8.31-3.54-29.85-8.41-30.54-14-1.09-8.77,4.74-15.67,17-25.38,5.42-4.29,9.93-7.41,17.4-8.81,6.52-1.23,10.88-1.6,17,1a20.71,20.71,0,0,1,9.87,7.68"/><path class="cls-8" d="M724.76,222.35c2.49,3.4,2,8.08,4.18,10,5.72,5,4.07,3.24,6.25,5.72,6,6.87,6.34,12.85,9.42,21.46,2.47,6.94,5,19.81,9.66,25.53,4.22,5.2,8.28,3.91,16.54,6.28,7.72,2.22,9.5,6.19,15.64,13.22,2.85,3.28,5.3,9,7.79,12.35,3.07,4.16,12.13,4.06,11.64,6.89-.82,4.66-12.63,1.64-20.75,1.62-14.21,0-22.66-.37-36.07-5-5.17-1.8-9.41-.55-12.88-5.57-1.49-2.16-5.7-20.37-13.71-30.8-8.56-11.16-10-14.31-28.43-22.18-8.31-3.54-29.85-8.41-30.54-14-1.09-8.77,4.74-15.67,17-25.38,5.42-4.29,9.93-7.41,17.4-8.81,6.52-1.23,10.88-1.6,17,1A20.71,20.71,0,0,1,724.76,222.35Z"/><path class="cls-10" d="M821.55,604.19c-2.29.45-4.13,1.9-4.23,4.22-.06,1.53.65,2.4,1.62,3.58a5.37,5.37,0,0,0,3.25,2.27,4.73,4.73,0,0,0,3.25-.32,5.1,5.1,0,0,0,2.93-3.25c.7-1.77,1.35-3.54,0-4.88-.85-.84-1.76-.67-2.93-1-1.49-.39-2.38-1-3.89-.65"/><path class="cls-8" d="M821.55,604.19c-2.29.45-4.13,1.9-4.23,4.22-.06,1.53.65,2.4,1.62,3.58a5.37,5.37,0,0,0,3.25,2.27,4.73,4.73,0,0,0,3.25-.32,5.1,5.1,0,0,0,2.93-3.25c.7-1.77,1.35-3.54,0-4.88-.85-.84-1.76-.67-2.93-1C824,604.45,823.06,603.89,821.55,604.19Z"/><path class="cls-7" d="M353.13,407.25c2.7-1.09,4.85-.2,7.36,1.27a9.32,9.32,0,0,1,5.07,7.1c.74,4.58-3.22,6.51-5.33,10.64-4.58,9-7.89,13.68-12.17,22.82-9.52,20.36-13.38,32.76-18,54.75a256.7,256.7,0,0,0-4.81,33.47c-1.61,17.13-1.51,26.9-1.27,44.1.12,8.71,2.71,13.83.76,22.31-.73,3.2.83,8.71-2.72,7.95-2.28-.5-4.12.8-4.88-1-2.53-4.82,0-11.29-1.27-16.61C304,544.14,317.39,482.54,336.4,447.3c6.59-12.16-15.21-28.13,2.54-29.4a26.84,26.84,0,0,0,4.56-.26c1.78-.5,3.14-1.8,4.56-3.54s1-3.5,2.54-5.08a6.49,6.49,0,0,1,2.53-1.77"/><path class="cls-8" d="M353.13,407.25c2.7-1.09,4.85-.2,7.36,1.27a9.32,9.32,0,0,1,5.07,7.1c.74,4.58-3.22,6.51-5.33,10.64-4.58,9-7.89,13.68-12.17,22.82-9.52,20.36-13.38,32.76-18,54.75a256.7,256.7,0,0,0-4.81,33.47c-1.61,17.13-1.51,26.9-1.27,44.1.12,8.71,2.71,13.83.76,22.31-.73,3.2.83,8.71-2.72,7.95-2.28-.5-4.12.8-4.88-1-2.53-4.82,0-11.29-1.27-16.61C304,544.14,317.39,482.54,336.4,447.3c6.59-12.16-15.21-28.13,2.54-29.4a26.84,26.84,0,0,0,4.56-.26c1.78-.5,3.14-1.8,4.56-3.54s1-3.5,2.54-5.08A6.49,6.49,0,0,1,353.13,407.25Z"/><path class="cls-10" d="M340.46,446c1.57,2.31,1.38,4.32,1,7.09-.53,4-3.48,5.28-5.32,8.88-3.77,7.37-4.64,12.11-7.1,20a247.53,247.53,0,0,0-8.87,38c-2.72,16.16-3.24,25.46-4.06,41.83-.84,17,.26,29.66,0,43.6,0,2.79-3.11,6.42-6.59,6.08s-4.82-4.31-5.07-7.35c-.76-8.11,0-13.77.25-22.56.77-23,1.49-36.07,5.08-58.81,3-18.79,6.08-29.16,10.39-47.66,1.27-5.58.36-9.63,1.27-15.72.72-4.89-.71-8.68,2.53-12.42a10.48,10.48,0,0,1,7.1-4.06c3.8-.56,7.21-.13,9.38,3.05"/><path class="cls-8" d="M340.46,446c1.57,2.31,1.38,4.32,1,7.09-.53,4-3.48,5.28-5.32,8.88-3.77,7.37-4.64,12.11-7.1,20a247.53,247.53,0,0,0-8.87,38c-2.72,16.16-3.24,25.46-4.06,41.83-.84,17,.26,29.66,0,43.6,0,2.79-3.11,6.42-6.59,6.08s-4.82-4.31-5.07-7.35c-.76-8.11,0-13.77.25-22.56.77-23,1.49-36.07,5.08-58.81,3-18.79,6.08-29.16,10.39-47.66,1.27-5.58.36-9.63,1.27-15.72.72-4.89-.71-8.68,2.53-12.42a10.48,10.48,0,0,1,7.1-4.06C334.88,442.43,338.29,442.86,340.46,446Z"/><path class="cls-10" d="M278.1,287.6c3.75.28,5.74,2.47,7.86,5.58s2.4,5.61,2.28,9.38-2.08,5.31-2.79,8.87c-.9,4.47-.81,7.1-.76,11.66a64.26,64.26,0,0,0,3,20c3,10.53,6.86,15.8,12.68,25.09s10.1,14.09,17.23,22.56c6.31,7.5,10.9,10.4,17,18.51,4.05,5.58,7,10.73,7.6,18.5.47,5.89,1.42,10.36-2.28,15-2.23,2.78-4.1,4.41-7.6,5.07-4.06.77-7.62.23-10.14-3-2.14-2.77-1.53-5.39-1.27-8.87s2.66-5.25,2.79-8.88c.2-5.54-2.79-9.38-5.33-13.18-7.35-10.39-12.17-16.27-20-26.62-8.11-10.67-13.31-16.25-20.79-27.37s-11.27-18-17.74-29.92c-5-9.24-11.77-13.56-12.17-24.08-.16-4.18-1.26-7.31,1.26-10.65a10.23,10.23,0,0,1,8.37-4.31c2.63-.15,3.95,1.61,6.59,1.52,3.16-.09,4.61-1.79,7.61-2.78,2.55-.85,3.91-2.23,6.59-2"/><path class="cls-8" d="M278.1,287.6c3.75.28,5.74,2.47,7.86,5.58s2.4,5.61,2.28,9.38-2.08,5.31-2.79,8.87c-.9,4.47-.81,7.1-.76,11.66a64.26,64.26,0,0,0,3,20c3,10.53,6.86,15.8,12.68,25.09s10.1,14.09,17.23,22.56c6.31,7.5,10.9,10.4,17,18.51,4.05,5.58,7,10.73,7.6,18.5.47,5.89,1.42,10.36-2.28,15-2.23,2.78-4.1,4.41-7.6,5.07-4.06.77-7.62.23-10.14-3-2.14-2.77-1.53-5.39-1.27-8.87s2.66-5.25,2.79-8.88c.2-5.54-2.79-9.38-5.33-13.18-7.35-10.39-12.17-16.27-20-26.62-8.11-10.67-13.31-16.25-20.79-27.37s-11.27-18-17.74-29.92c-5-9.24-11.77-13.56-12.17-24.08-.16-4.18-1.26-7.31,1.26-10.65a10.23,10.23,0,0,1,8.37-4.31c2.63-.15,3.95,1.61,6.59,1.52,3.16-.09,4.61-1.79,7.61-2.78C274.06,288.78,275.42,287.4,278.1,287.6Z"/><path class="cls-10" d="M773.93,301.29c2,1.19,2.63,2.8,3,5.07.46,2.48-.23,4-1.26,6.34-1.57,3.51-5.83,4.56-6.85,7.09-10.14,21.55-12,27.93-17.51,46.5-5,16.78-5.8,27.27-10.1,43.75-2.29,9.38-4.87,16.87-1.27,26.62,3.15,8.55,9.12,11.91,15.21,17.74,2.53,2.28,1.43,6.75,0,10.65-1.88,5.12-4.85,8.3-10.14,9.63-6.61,1.67-9.18-6.5-16-7.1-5.18-.45-8.35,4-13.16,2.06-4-1.64-5.69-4.37-7.38-8.39-2.1-5-1.82-8.92.26-13.95,1.53-3.71,5-5,6.33-8.11,3.72-8.88.47-11.15,3.07-28.05,4.58-29.8,21.51-64.73,28.35-87.54,1.27-4.31-5-6.7-5.61-11.74-.66-5.4-1.58-10.8,3.08-13.61,2.27-1.37,4-1.17,6.67-1.34,6.79-.45,10.11,3.93,16.91,4.38,2.46.16,4.21-1.27,6.33,0"/><path class="cls-8" d="M773.93,301.29c2,1.19,2.63,2.8,3,5.07.46,2.48-.23,4-1.26,6.34-1.57,3.51-5.83,4.56-6.85,7.09-10.14,21.55-12,27.93-17.51,46.5-5,16.78-5.8,27.27-10.1,43.75-2.29,9.38-4.87,16.87-1.27,26.62,3.15,8.55,9.12,11.91,15.21,17.74,2.53,2.28,1.43,6.75,0,10.65-1.88,5.12-4.85,8.3-10.14,9.63-6.61,1.67-9.18-6.5-16-7.1-5.18-.45-8.35,4-13.16,2.06-4-1.64-5.69-4.37-7.38-8.39-2.1-5-1.82-8.92.26-13.95,1.53-3.71,5-5,6.33-8.11,3.72-8.88.47-11.15,3.07-28.05,4.58-29.8,21.51-64.73,28.35-87.54,1.27-4.31-5-6.7-5.61-11.74-.66-5.4-1.58-10.8,3.08-13.61,2.27-1.37,4-1.17,6.67-1.34,6.79-.45,10.11,3.93,16.91,4.38C770.06,301.45,771.81,300,773.93,301.29Z"/><path class="cls-10" d="M748.4,470.88c3.56,2,5.33,5.32,6.59,8.11,2.54,5.58-.17,10.24.91,16.65,3.25,19.48,13.18,28.16,24.7,44.2,12.36,17.22,24.88,22.48,36.75,40,5.1,7.54,9.32,8.68,11.85,20.08,1,4.57-4.39,3.26-7.65,4.23-2.84.84-3.75,5.41-7.56.84-6.33-7.35-3-6.64-5.25-10.7-8-14.32-16.08-20-26.84-32.39C771.53,550,765.8,543.16,754.6,532c-7.79-7.72-10.51-13-20.65-19.08-6.84-4.06-12.46-7.64-15.21-15.72-1.19-3.49-2.08-5.78-1.27-9.38.72-3.16,3.12-4.09,4.31-7.09,1.28-3.19-.35-5.93,1.78-8.62,3.16-4,7.83-1.84,12.93-2,4.65-.18,7.84-1.51,11.91.76"/><path class="cls-8" d="M748.4,470.88c3.56,2,5.33,5.32,6.59,8.11,2.54,5.58-.17,10.24.91,16.65,3.25,19.48,13.18,28.16,24.7,44.2,12.36,17.22,24.88,22.48,36.75,40,5.1,7.54,9.32,8.68,11.85,20.08,1,4.57-4.39,3.26-7.65,4.23-2.84.84-3.75,5.41-7.56.84-6.33-7.35-3-6.64-5.25-10.7-8-14.32-16.08-20-26.84-32.39C771.53,550,765.8,543.16,754.6,532c-7.79-7.72-10.51-13-20.65-19.08-6.84-4.06-12.46-7.64-15.21-15.72-1.19-3.49-2.08-5.78-1.27-9.38.72-3.16,3.12-4.09,4.31-7.09,1.28-3.19-.35-5.93,1.78-8.62,3.16-4,7.83-1.84,12.93-2C741.14,469.94,744.33,468.61,748.4,470.88Z"/><path class="cls-10" d="M843,624.66c-2.6,5.85-7.06.36-9.1,3.58-1.91,3-.22,5.56,0,9.1.39,6.55,2.26,10,2.92,16.57.54,5.31.39,8.33.65,13.65.76,15.47,5.54,24.59,1.95,39.65-.8,3.36-2.55,5-2.6,8.45,0,2.59-.72,4.89,1.3,6.5,2.19,1.76,4.49.23,7.15-.65,10.9-3.58,3.17-17.77,3.25-29.25.09-12.87-3.27-20-3.57-32.82-.2-8.37,1-13,.65-21.45-.17-4.19-.75-17.5-2.6-13.33"/><path class="cls-8" d="M843,624.66c-2.6,5.85-7.06.36-9.1,3.58-1.91,3-.22,5.56,0,9.1.39,6.55,2.26,10,2.92,16.57.54,5.31.39,8.33.65,13.65.76,15.47,5.54,24.59,1.95,39.65-.8,3.36-2.55,5-2.6,8.45,0,2.59-.72,4.89,1.3,6.5,2.19,1.76,4.49.23,7.15-.65,10.9-3.58,3.17-17.77,3.25-29.25.09-12.87-3.27-20-3.57-32.82-.2-8.37,1-13,.65-21.45C845.43,633.8,844.85,620.49,843,624.66Z"/><path class="cls-10" d="M826.75,610c-1.23,6.4,10.91,7.64,16.25,3.9,3.81-2.67,3.57-6.49,4.55-11.05,1.24-5.83,3.42-10.64-.33-15.28-2.78-3.44-6-4.14-10.4-4.55-2.54-.23-4.18-.4-6.5.65-6.63,3,5.78,12.15,2.28,18.53a22.78,22.78,0,0,1-1.3,2c-1.63,2.39-4,3-4.55,5.85"/><path class="cls-8" d="M826.75,610c-1.23,6.4,10.91,7.64,16.25,3.9,3.81-2.67,3.57-6.49,4.55-11.05,1.24-5.83,3.42-10.64-.33-15.28-2.78-3.44-6-4.14-10.4-4.55-2.54-.23-4.18-.4-6.5.65-6.63,3,5.78,12.15,2.28,18.53a22.78,22.78,0,0,1-1.3,2C829.67,606.58,827.29,607.2,826.75,610Z"/><path class="cls-10" d="M830.32,616.54c-2.05,1.89-.85,4.41-.32,7.15.38,2,.3,3.65,2,4.87,2.39,1.79,4.85-.19,7.47-1.62,3.32-1.82,7.58-4,6.18-7.48-1.24-3.09-4.85-2.05-8.13-2.6-2.75-.45-5.1-2.21-7.15-.32"/><path class="cls-8" d="M830.32,616.54c-2.05,1.89-.85,4.41-.32,7.15.38,2,.3,3.65,2,4.87,2.39,1.79,4.85-.19,7.47-1.62,3.32-1.82,7.58-4,6.18-7.48-1.24-3.09-4.85-2.05-8.13-2.6C834.72,616.41,832.37,614.65,830.32,616.54Z"/><path class="cls-8" d="M254.49,158.66c.72,3.05,1.95,4.86-.26,6.53-1.84,1.38-3.49-3.22-5.06-2.52-1.4.62-.27,4,.42,6.3s3.62,2.31-.88,6.27c-.86.76-3.93-.06-5.65-.63"/><path class="cls-8" d="M267.26,176.37c.13,1.06.94,4.29.16,4.81-1.15.77-4.18-3.08-5.6-1.14-1.25,1.7,6.24,7.14,5.61,9.16-1.19,3.77-4.15,2.42-6.79,4"/><path class="cls-8" d="M243.85,139.77c-.3,1.19,1.23,5.26-.58,6.48-.76.51-4.28-2.87-5-2-1.19,1.47,3.38,5.86,2.39,8.71-.79,2.25-1.57,4.45-3.94,4.69-1.15.12-1.74-.44-2.86-.73"/><path class="cls-8" d="M218,106.44c.13,1.81.69,2.86.34,4.64-.47,2.33-1.21,4.06-3.35,5.11-1.51.74-2.63.23-4.32.37"/><path class="cls-9" d="M766.3,301.29c-2.79.82-5.39-.2-7.15,2.11-1,1.37-.8,2.58-1.3,4.23"/><path class="cls-7" d="M40.57,155c1.46,6.33,2.87,8.25,7.64,10.56,5,2.44,13.88-.71,22.75-1.3,16.28-1.08,25.5-1.32,41.76-2.76,14.09-1.26,23,1.42,36.07-3.9,7-2.82,9.93-6.29,16.58-9.75,8.46-4.4,18.24-1.18,22.42-9.75a17.33,17.33,0,0,0,2-8.45c.1-5.29-.81-8.71-3.9-13-6.1-8.49-20.62,2.46-26-6.5-1.65-2.75-1.28-4.88-2.6-7.8-1.59-3.53-1.41-7.63-5.2-8.45-3.32-.72-5,1.94-7.8,3.9-10.18,7.16-6.41,18.46-12,29.57-1.36,2.69-1.53,4.62-3.58,6.83-1.86,2-3.2,4.62-5.85,3.9-1.81-.5-1.42-4-3.25-3.58s.3,3.26-1,4.55-2.4,1.87-3.9,1.3c-1.7-.64-.15-4-2-4.22-2-.24-.29,3.67-2,4.87a5.09,5.09,0,0,1-4.88.65c-1.72-.51-1.78-3.1-3.57-2.92-1.61.16-1.58,2-2.93,2.92-3.19,2.1-5.94.6-9.75,1-6.87.68-18.61,1.1-24,1.3-1.18,0-1.38,2.51-2.6,2.6-.79,0-1.77-1.38-2.6-1.3s-1-1.57-1.78-1.46c-1.64.21-.62,3-2.44,3.41-1.07.21-1.35-2.05-2.28-2-1.15.12-1.87,2.73-2.92,2.92-1.46.27-1.68-1.66-3.25-.65-1.16.75-10.29-3.33-11.38-2.6-1.38.93,3.83,8.36,4.23,10.08"/><path class="cls-8" d="M40.57,155c1.46,6.33,2.87,8.25,7.64,10.56,5,2.44,13.88-.71,22.75-1.3,16.28-1.08,25.5-1.32,41.76-2.76,14.09-1.26,23,1.42,36.07-3.9,7-2.82,9.93-6.29,16.58-9.75,8.46-4.4,18.24-1.18,22.42-9.75a17.33,17.33,0,0,0,2-8.45c.1-5.29-.81-8.71-3.9-13-6.1-8.49-20.62,2.46-26-6.5-1.65-2.75-1.28-4.88-2.6-7.8-1.59-3.53-1.41-7.63-5.2-8.45-3.32-.72-5,1.94-7.8,3.9-10.18,7.16-6.41,18.46-12,29.57-1.36,2.69-1.53,4.62-3.58,6.83-1.86,2-3.2,4.62-5.85,3.9-1.81-.5-1.42-4-3.25-3.58s.3,3.26-1,4.55-2.4,1.87-3.9,1.3c-1.7-.64-.15-4-2-4.22-2-.24-.29,3.67-2,4.87a5.09,5.09,0,0,1-4.88.65c-1.72-.51-1.78-3.1-3.57-2.92-1.61.16-1.58,2-2.93,2.92-3.19,2.1-5.94.6-9.75,1-6.87.68-18.61,1.1-24,1.3-1.18,0-1.38,2.51-2.6,2.6-.79,0-1.77-1.38-2.6-1.3s-1-1.57-1.78-1.46c-1.64.21-.62,3-2.44,3.41-1.07.21-1.35-2.05-2.28-2-1.15.12-1.87,2.73-2.92,2.92-1.46.27-1.68-1.66-3.25-.65-1.16.75-10.29-3.33-11.38-2.6C35,145.89,40.17,153.32,40.57,155Z"/><path class="cls-10" d="M321,620.13s-.29-2.74-1.54-3.59c-1.57-1.07-6.24,1.17-8.13,2.14-3.15,1.62-.7,3.45-2.27,6.63-2.91,5.89-8.14,15.6-12.35,26-2.82,7-2.58,11.73-6.52,18.12-1.72,2.78-3.57,3.79-5,6.72-1.15,2.31-2.8,3.78-2.13,6.28,1.19,4.42,8.1,2.23,11.72-.57s2.1-6.81,3.56-11.13c2.57-7.66,4.09-14,7-19.51,5.38-10.31,7.35-10.77,11.29-18.25,2-3.71,5.47-7,4.41-12.84"/><path class="cls-8" d="M321,620.13s-.29-2.74-1.54-3.59c-1.57-1.07-6.24,1.17-8.13,2.14-3.15,1.62-.7,3.45-2.27,6.63-2.91,5.89-8.14,15.6-12.35,26-2.82,7-2.58,11.73-6.52,18.12-1.72,2.78-3.57,3.79-5,6.72-1.15,2.31-2.8,3.78-2.13,6.28,1.19,4.42,8.1,2.23,11.72-.57s2.1-6.81,3.56-11.13c2.57-7.66,4.09-14,7-19.51,5.38-10.31,7.35-10.77,11.29-18.25C318.51,629.26,322,626,321,620.13Z"/><path class="cls-10" d="M198.84,102.06c6.28-.21,7,7,10.73,12,2.18,2.93,5.07,4.14,5.2,7.8.16,4.59-3,7.91-7.48,9.1-3.5.94-6.17.2-9.1-2-3.47-2.55-3.47-5.9-4.55-10.08-1.46-5.64-4.95-11.4-.32-14.95a8.47,8.47,0,0,1,5.52-2"/><path class="cls-9" d="M198.84,102.06c6.28-.21,7,7,10.73,12,2.18,2.93,5.07,4.14,5.2,7.8.16,4.59-3,7.91-7.48,9.1-3.5.94-6.17.2-9.1-2-3.47-2.55-3.47-5.9-4.55-10.08-1.46-5.64-4.95-11.4-.32-14.95A8.47,8.47,0,0,1,198.84,102.06Z"/><path class="cls-11" d="M210.06,96.05c-4.81-1.13-5.11,5.79-8.62,9.26s-8.93,3.49-9.1,8.29c-.06,1.83.8,2.75,1.14,4.55,1.46,7.64,4.24-3.75,7.48-5.2a26.59,26.59,0,0,1,7.15-2c1.17,0,8.85-6,7-10.56a6.68,6.68,0,0,0-5-4.39"/><path class="cls-12" d="M337.62,192.41c-2.16,2.1-3.41,6.13-4.55,10.4-1,3.59-1.74,5.74-1.3,9.43.22,1.81.79,2.75,1.14,4.55,1.46,7.64-4.31,21,4.38,27.3,6.13,4.44,35.43,12.87,58.18,16.25,12.86,1.91,46.88,4.55,63,4.55,13,0,36.86-1.31,37.07-1.31,1,0-141.27-34.27-154.72-51.67-3.17-4.1,11.95-11.73,11.7-12.35-1.61-4-11.22-10.77-14.95-7.15"/><path class="cls-7" d="M268.66,194.46c2.23-3.16,6.19.66,9.9-.42,3.44-1,7.4-8,8-4.45.26,1.5-.57,2.32-.86,3.82-.81,4.1.65,6.84-1,10.68-1.72,4-3.44,6.56-7.41,8.32-2.6,1.15-4.45,1.83-7.21,1.12-3.87-1-7.83-3.82-6.8-7.69.69-2.55,4.05-2,5.21-4.35s-1.42-4.8.17-7"/><path class="cls-8" d="M268.66,194.46c2.23-3.16,6.19.66,9.9-.42,3.44-1,7.4-8,8-4.45.26,1.5-.57,2.32-.86,3.82-.81,4.1.65,6.84-1,10.68-1.72,4-3.44,6.56-7.41,8.32-2.6,1.15-4.45,1.83-7.21,1.12-3.87-1-7.83-3.82-6.8-7.69.69-2.55,4.05-2,5.21-4.35S267.07,196.69,268.66,194.46Z"/><path class="cls-10" d="M305.44,608.74c-3,.44-6,2.15-5.85,5.2.12,2.33,1.76,3.63,3.9,4.55,1.87.8,3.19.24,5.2,0s3.63.07,5.2-1.3c3.52-3.06-3.83-9.12-8.45-8.45"/><path class="cls-13" d="M305.44,608.74c-3,.44-6,2.15-5.85,5.2.12,2.33,1.76,3.63,3.9,4.55,1.87.8,3.19.24,5.2,0s3.63.07,5.2-1.3C317.41,614.13,310.06,608.07,305.44,608.74Z"/><path class="cls-10" d="M315.52,609.39c-2.09,1.63-3.84,4.65-1.95,6.5,1.45,1.42,3.2-.34,5.2,0s3,1.89,5.2,2c4.66.12-4.78-11.32-8.45-8.45"/><path class="cls-13" d="M315.52,609.39c-2.09,1.63-3.84,4.65-1.95,6.5,1.45,1.42,3.2-.34,5.2,0s3,1.89,5.2,2C328.63,618,319.19,606.52,315.52,609.39Z"/><path class="cls-10" d="M327.54,611c-2.26,0-5-.73-5.62,1.43-.58,1.94.83,3.65,2.7,4.42,2.07.86,3.36-1,5.52-1.62s6.83,4.55,5.2-1.3c-2.21-8-4.55-2.91-7.8-2.93"/><path class="cls-13" d="M327.54,611c-2.26,0-5-.73-5.62,1.43-.58,1.94.83,3.65,2.7,4.42,2.07.86,3.36-1,5.52-1.62s6.83,4.55,5.2-1.3C333.13,606,330.79,611,327.54,611Z"/><path class="cls-10" d="M311,242.14c4.09-3.35,20.06-11,14,.65-7.15,13.65-13.32,56.55-13.65,75.4-.22,12.89,0,11.05,2.6,26,.8,4.57-8.07-.65-8.45-.65-1.62,0-5.81-9.51-5.2-26.33.65-17.87,6.79-60.23,7.15-67.6.33-6.5,0-4.55,3.58-7.47"/><path class="cls-14" d="M311,242.14c4.09-3.35,20.06-11,14,.65-7.15,13.65-13.32,56.55-13.65,75.4-.22,12.89,0,11.05,2.6,26,.8,4.57-8.07-.65-8.45-.65-1.62,0-5.81-9.51-5.2-26.33.65-17.87,6.79-60.23,7.15-67.6C307.72,243.11,307.39,245.06,311,242.14Z"/><path class="cls-10" d="M43,118.48c-.65,1.13.9,5.47,0,8.77-1.38,5-6.83,6.18-8.45,10.4-1.06,2.75.51,4.66,1.78,7.31a31.79,31.79,0,0,0,5.85,8.45c2.87,3.16,7.32,6.5,9.43,5.53.68-.32-1.42-3-2.11-7-.45-2.55-.61-7.52.32-8.45.23-.23,1.5-.24,3.41-.2.82,0,1.75,2,2.77,2,1.43,0,.27-2.24,2-2.28,1.48,0,3.33,1.93,4.87,1.79.81-.07.17-1.84,1-2,.55-.08,4.94-.15,5.38-.23,6.07-1.05,1.16-1.86,2.9-1.72,2.2.18,2.26,4.16,4.39,3.58,1.58-.43.81-3.31,2.44-3.42s1.22,3.28,2.92,3.25c1.87,0,.91-3.73,2.77-3.9s1.7,4.49,3.57,3.74c.75-.3.72-1.15,1.46-1.46,1.41-.6,2.28,1.58,3.74,1.14,2.05-.63,0-6.31,1.79-5.2,1,.61.51,1.87,1.3,2.76a5,5,0,0,0,5.85,1.3c1.19-.44,1.44-1.44,2.6-1.95.9-.4,1.51-.31,2.44-.65,1.3-.49,1.81-1.23,3.08-1.79a18.62,18.62,0,0,1,4.88-1.3c1.57-.29,2.5-.15,4.06-.49a14.55,14.55,0,0,0,6-2.27c4.37-3,4.09-7.19,6.18-12,1.45-3.35.72-6.14,3.25-8.77,3.2-3.33,6.78-2.81,11.37-3.25,8.17-.79,13,1.55,20.48,4.87,6,2.68,8,10.93,14.3,9.1,2.87-.82,4-2.53,6.17-4.55,2.59-2.36,3.41-4.31,5.85-6.82,3.08-3.15,5.31-4.4,8.45-7.48,3.79-3.7,6.5-5.46,9.1-10.07,2.43-4.29,4-7.1,3.9-12-.24-9.51-8-13.45-16.25-18.2s-14.48-4.46-24.05-4.87c-11.39-.49-17.81,1.66-28.92,4.22-10,2.3-15.76,3.49-25,7.8-7.44,3.47-13.07,4.34-18,10.89-3.21,4.23-1.89,8.5-5.37,12.51-3.24,3.75-6.4,4.41-10.72,6.83-13.15,7.36-22.63,6.87-36.4,13-2.62,1.16-5.87,1.7-6.66,3.09"/><path class="cls-8" d="M43,118.48c-.65,1.13.9,5.47,0,8.77-1.38,5-6.83,6.18-8.45,10.4-1.06,2.75.51,4.66,1.78,7.31a31.79,31.79,0,0,0,5.85,8.45c2.87,3.16,7.32,6.5,9.43,5.53.68-.32-1.42-3-2.11-7-.45-2.55-.61-7.52.32-8.45.23-.23,1.5-.24,3.41-.2.82,0,1.75,2,2.77,2,1.43,0,.27-2.24,2-2.28,1.48,0,3.33,1.93,4.87,1.79.81-.07.17-1.84,1-2,.55-.08,4.94-.15,5.38-.23,6.07-1.05,1.16-1.86,2.9-1.72,2.2.18,2.26,4.16,4.39,3.58,1.58-.43.81-3.31,2.44-3.42s1.22,3.28,2.92,3.25c1.87,0,.91-3.73,2.77-3.9s1.7,4.49,3.57,3.74c.75-.3.72-1.15,1.46-1.46,1.41-.6,2.28,1.58,3.74,1.14,2.05-.63,0-6.31,1.79-5.2,1,.61.51,1.87,1.3,2.76a5,5,0,0,0,5.85,1.3c1.19-.44,1.44-1.44,2.6-1.95.9-.4,1.51-.31,2.44-.65,1.3-.49,1.81-1.23,3.08-1.79a18.62,18.62,0,0,1,4.88-1.3c1.57-.29,2.5-.15,4.06-.49a14.55,14.55,0,0,0,6-2.27c4.37-3,4.09-7.19,6.18-12,1.45-3.35.72-6.14,3.25-8.77,3.2-3.33,6.78-2.81,11.37-3.25,8.17-.79,13,1.55,20.48,4.87,6,2.68,8,10.93,14.3,9.1,2.87-.82,4-2.53,6.17-4.55,2.59-2.36,3.41-4.31,5.85-6.82,3.08-3.15,5.31-4.4,8.45-7.48,3.79-3.7,6.5-5.46,9.1-10.07,2.43-4.29,4-7.1,3.9-12-.24-9.51-8-13.45-16.25-18.2s-14.48-4.46-24.05-4.87c-11.39-.49-17.81,1.66-28.92,4.22-10,2.3-15.76,3.49-25,7.8-7.44,3.47-13.07,4.34-18,10.89-3.21,4.23-1.89,8.5-5.37,12.51-3.24,3.75-6.4,4.41-10.72,6.83-13.15,7.36-22.63,6.87-36.4,13C47.05,116.55,43.8,117.09,43,118.48Z"/><path class="cls-10" d="M485.7,244.82c.12-1.43,1.72-1.67,3.12-1.95,2.67-.54,3.84,1.84,6.24,3.12,10.28,5.47,18.78,6.85,24.56,16.95,7.44,13,.13,38.35-2.6,38.35-3.12,0,4.93-24-2.6-35.75-5.74-9-12.44-11.54-22.09-16-2.09-1-4-.54-5.46-2.34-.63-.8-1.25-1.33-1.17-2.34"/><path class="cls-14" d="M485.7,244.82c.12-1.43,1.72-1.67,3.12-1.95,2.67-.54,3.84,1.84,6.24,3.12,10.28,5.47,18.78,6.85,24.56,16.95,7.44,13,.13,38.35-2.6,38.35-3.12,0,4.93-24-2.6-35.75-5.74-9-12.44-11.54-22.09-16-2.09-1-4-.54-5.46-2.34C486.24,246.36,485.62,245.83,485.7,244.82Z"/><path class="cls-10" d="M469.28,242a3.48,3.48,0,0,1,2.79-1.87c2.39-.52,3.45,1.76,5.59,3,11.48,6.6,19.91,9.69,26.56,21.68,6.38,11.53,6.73,29.78,3.14,42.61-2.46,8.78-9.66,16.82-10.66,16.82-1.22,0,3.69-9.49,5.7-18.72,2.56-11.82,1-31.2-2.6-37.37-6.69-11.56-12.92-14.65-24.38-20.48-1.87-.95-4.31,0-5.53-1.95-.78-1.24-1.23-2.38-.61-3.71"/><path class="cls-14" d="M469.28,242a3.48,3.48,0,0,1,2.79-1.87c2.39-.52,3.45,1.76,5.59,3,11.48,6.6,19.91,9.69,26.56,21.68,6.38,11.53,6.73,29.78,3.14,42.61-2.46,8.78-9.66,16.82-10.66,16.82-1.22,0,3.69-9.49,5.7-18.72,2.56-11.82,1-31.2-2.6-37.37-6.69-11.56-12.92-14.65-24.38-20.48-1.87-.95-4.31,0-5.53-1.95C469.11,244.47,468.66,243.33,469.28,242Z"/><path class="cls-10" d="M442.27,244.09c.13-1.49,1.79-1.73,3.25-2,2.78-.58,3.68,3,6.5,3.25,13,1.22,24.73.87,34.35,12.7,10.31,12.67,11.53,33.7,8.33,51.39-1.6,8.86-3.77,19.4-6.61,26-2.71,6.33-12.46,14.33-12.35,13.65.65-3.9,9.45-15.54,12-32.17s2.06-41.53-7.48-53.63c-9.16-11.63-16.08-10.23-31.11-14.3-2.33-.63-4.18-.55-5.69-2.43-.67-.83-1.31-1.38-1.22-2.44"/><path class="cls-14" d="M442.27,244.09c.13-1.49,1.79-1.73,3.25-2,2.78-.58,3.68,3,6.5,3.25,13,1.22,24.73.87,34.35,12.7,10.31,12.67,11.53,33.7,8.33,51.39-1.6,8.86-3.77,19.4-6.61,26-2.71,6.33-12.46,14.33-12.35,13.65.65-3.9,9.45-15.54,12-32.17s2.06-41.53-7.48-53.63c-9.16-11.63-16.08-10.23-31.11-14.3-2.33-.63-4.18-.55-5.69-2.43C442.82,245.7,442.18,245.15,442.27,244.09Z"/><path class="cls-10" d="M420.58,242.31c.12-1.49,1.78-1.73,3.25-2,2.77-.58,3.79,2.42,6.5,3.25,9.34,2.84,22.66,1.21,32.74,10.63C475,265.32,477,306.27,473.8,324c-1.48,8.15-3.82,19.05-6.83,26.4-3.4,8.31-11.6,13.33-12.35,13.33-1.62,0,8.79-20.42,11.37-37.05s2.39-56-8.12-67.28c-9.1-9.75-19-8.93-30.39-12.18-2.32-.66-4.17-.56-5.68-2.43-.67-.83-1.31-1.38-1.22-2.44"/><path class="cls-14" d="M420.58,242.31c.12-1.49,1.78-1.73,3.25-2,2.77-.58,3.79,2.42,6.5,3.25,9.34,2.84,22.66,1.21,32.74,10.63C475,265.32,477,306.27,473.8,324c-1.48,8.15-3.82,19.05-6.83,26.4-3.4,8.31-11.6,13.33-12.35,13.33-1.62,0,8.79-20.42,11.37-37.05s2.39-56-8.12-67.28c-9.1-9.75-19-8.93-30.39-12.18-2.32-.66-4.17-.56-5.68-2.43C421.13,243.92,420.49,243.37,420.58,242.31Z"/><path class="cls-10" d="M393.93,243.28a5.1,5.1,0,0,1,3.25-2c2.77-.57,3.79,2.43,6.5,3.25,9.34,2.84,15.19-4.64,24.94,4.14,12.14,10.93,23.67,64.86,20.47,82.55-2.23,12.38-4.8,31.16-9.1,40.95-1.72,3.92-9,5.85-9.42,5.85-1.62,0,6.19-28.22,8.77-44.85s-4.44-65.25-14-77.35c-9.17-11.64-13.65-2.93-25-6.18-2.32-.66-1.86,2.4-3.57,2.61-3.63.45-5.17-6.11-2.84-8.94"/><path class="cls-14" d="M393.93,243.28a5.1,5.1,0,0,1,3.25-2c2.77-.57,3.79,2.43,6.5,3.25,9.34,2.84,15.19-4.64,24.94,4.14,12.14,10.93,23.67,64.86,20.47,82.55-2.23,12.38-4.8,31.16-9.1,40.95-1.72,3.92-9,5.85-9.42,5.85-1.62,0,6.19-28.22,8.77-44.85s-4.44-65.25-14-77.35c-9.17-11.64-13.65-2.93-25-6.18-2.32-.66-1.86,2.4-3.57,2.61C393.14,252.67,391.6,246.11,393.93,243.28Z"/><path class="cls-10" d="M372.72,240.84a5.06,5.06,0,0,1,3.25-2c2.78-.58,3.79,2.42,6.5,3.25,9.34,2.84,7.15-8.05,16.9.73,12.14,10.93,19.12,65.51,15.92,83.2-2.3,12.72-4.32,48.35-8.77,60.12-1.62,4.28-8.4,2.93-8.78,2.93-1.62,0,4.57-47.72,7.15-64.35s2.12-63.86-8.77-74.75c-7.15-7.15-5.61.48-17-2.77-2.32-.67-1.86,2.39-3.58,2.61-3.63.44-5.14-6.1-2.84-8.94"/><path class="cls-14" d="M372.72,240.84a5.06,5.06,0,0,1,3.25-2c2.78-.58,3.79,2.42,6.5,3.25,9.34,2.84,7.15-8.05,16.9.73,12.14,10.93,19.12,65.51,15.92,83.2-2.3,12.72-4.32,48.35-8.77,60.12-1.62,4.28-8.4,2.93-8.78,2.93-1.62,0,4.57-47.72,7.15-64.35s2.12-63.86-8.77-74.75c-7.15-7.15-5.61.48-17-2.77-2.32-.67-1.86,2.39-3.58,2.61C371.93,250.22,370.42,243.68,372.72,240.84Z"/><path class="cls-10" d="M345.09,237.59c2.79-2.21,7.64.95,9.1.65,2.78-.57,4.55-10.08,14.3-1.3,12.15,10.93,17.5,70.71,14.3,88.4-2.26,12.52-3.32,45.24-7.8,57.2-1.72,4.6-11.45,5.91-11.37,5.52.32-1.62,6.84-45.44,9.42-62.07s1.47-67.44-9.42-78.33c-7.15-7.15-13.85,6.68-17.88,1-2.48-3.53-4-8.37-.65-11"/><path class="cls-14" d="M345.09,237.59c2.79-2.21,7.64.95,9.1.65,2.78-.57,4.55-10.08,14.3-1.3,12.15,10.93,17.5,70.71,14.3,88.4-2.26,12.52-3.32,45.24-7.8,57.2-1.72,4.6-11.45,5.91-11.37,5.52.32-1.62,6.84-45.44,9.42-62.07s1.47-67.44-9.42-78.33c-7.15-7.15-13.85,6.68-17.88,1C343.26,245.11,341.71,240.27,345.09,237.59Z"/><path class="cls-10" d="M326.24,238.89c2.09-4.61,5.2-8.78,14.95,0,12.15,10.93,16.2,67.46,13,85.15-2.29,12.68-.74,33-5.2,44.85-1.63,4.34-6.77-1.95-7.15-1.95-1.62,0-.63-25.62,2-42.25s6-62.89-4.87-73.78c-7.15-7.15-2.1,1.11-3.58,1.3-6.24.8-10.93-9.29-9.1-13.32"/><path class="cls-14" d="M326.24,238.89c2.09-4.61,5.2-8.78,14.95,0,12.15,10.93,16.2,67.46,13,85.15-2.29,12.68-.74,33-5.2,44.85-1.63,4.34-6.77-1.95-7.15-1.95-1.62,0-.63-25.62,2-42.25s6-62.89-4.87-73.78c-7.15-7.15-2.1,1.11-3.58,1.3C329.1,253,324.41,242.92,326.24,238.89Z"/><path class="cls-10" d="M277.49,209.64c-11.33,15.87-13,42.57-15.92,55.57-1.24,5.52-10.08,3.58-11.38,10.08-2,10.2,9.11,14.55,19.5,14.95,4.71.18,11.94-2.76,13-6.5s-4-8.44-1.3-11.7c15.61-18.6,56.55-33.8,61.1-39.65,3.77-4.84-3.46-16.39-6.5-26.65s-.54-21.72-9.1-26c-8.17-4.09-12.83,1.48-21.45,4.55-14.2,5.05-19.18,13.08-27.95,25.35"/><path class="cls-8" d="M277.49,209.64c-11.33,15.87-13,42.57-15.92,55.57-1.24,5.52-10.08,3.58-11.38,10.08-2,10.2,9.11,14.55,19.5,14.95,4.71.18,11.94-2.76,13-6.5s-4-8.44-1.3-11.7c15.61-18.6,56.55-33.8,61.1-39.65,3.77-4.84-3.46-16.39-6.5-26.65s-.54-21.72-9.1-26c-8.17-4.09-12.83,1.48-21.45,4.55C291.24,189.34,286.26,197.37,277.49,209.64Z"/><path class="cls-12" d="M271.64,276.91c8.8-21.88,18.16-32.13,30.88-52,8.22-12.85,23.37-32.21,21.77-32.5-3.57-.65-13.1,8.81-20.15,15.93s-9.66,12.18-15.6,20.15c-6.23,8.38-10.11,12.88-15.6,21.77-4.46,7.24-6,11.88-10.4,19.18s-14,12-12,18.2,9.75,2.27,16.57,1.95c0,0,2.6-7.8,4.55-12.68"/><path class="cls-14" d="M369.79,349.06c2.29.38,3.56,1.29,5.85,1,1.75-.24,2.58-1,4.23-1.63"/><path class="cls-14" d="M402.29,347.44c2,.13,3.2.64,5.2.32,2.31-.36,3.37-1.38,5.53-2.27"/><path class="cls-14" d="M438.37,340c1.9-.25,3.06,0,4.87-.65s2.58-1.39,4.23-2.27"/><path class="cls-14" d="M342.17,344.51c1.9.89,2.79,2,4.87,2.28,1.79.2,2.78-.4,4.55-.65"/><path class="cls-14" d="M465.34,330.54a21.26,21.26,0,0,0,3.9-1.3c1.6-.85,2.19-1.79,3.58-2.93"/><path class="cls-14" d="M487.77,318.19a16.3,16.3,0,0,0,2.92-1.63c1.27-1,1.59-2,2.6-3.25"/><path class="cls-9" d="M324.29,192.41c-7.8,4.55-15.92,8.13-28.92,26.65-10.26,14.62-16.66,22.48-26,37.7-4.22,6.88-5.2,11.38-10.4,17.88-5,6.19-13.13,10.59-8.13,14.95,2.63,2.28,5.3,1.78,8.78,1.62,2.46-.11,4.7.67,6.17-1.3,1.95-2.6,3.57-7.93,5.85-13"/><path class="cls-10" d="M122.79,75.74c-3.58,2.37-4.6,4.92-7.8,7.8-2.68,2.4-4.91,3-7.15,5.85-3,3.84-5.24,6.85-4.55,11.7.55,3.83,1.61,7,5.2,8.45,3.37,1.35,5.87-.3,9.1-2,4.49-2.29,3.92-7.57,8.45-9.75,5.49-2.64,9.53.25,15.6.65,3.05.2,4.84-.1,7.8.65a25.46,25.46,0,0,1,5.2,2c1,.47,1.57.82,2.6,1.3,8,3.7,13.42,6,22.1,4.55,7.62-1.23,10.49-6,17.55-9.1,3.76-1.65,7.29-.63,9.75-3.9,3.39-4.5.54-9.25-1.95-14.3-2.86-5.8-6.79-7.74-12.35-11-9.14-5.45-16-6.16-26.65-5.85-11.38.33-17.05,5.13-27.95,8.45-5.83,1.77-9.86,1.18-15,4.55"/><path class="cls-8" d="M122.79,75.74c-3.58,2.37-4.6,4.92-7.8,7.8-2.68,2.4-4.91,3-7.15,5.85-3,3.84-5.24,6.85-4.55,11.7.55,3.83,1.61,7,5.2,8.45,3.37,1.35,5.87-.3,9.1-2,4.49-2.29,3.92-7.57,8.45-9.75,5.49-2.64,9.53.25,15.6.65,3.05.2,4.84-.1,7.8.65a25.46,25.46,0,0,1,5.2,2c1,.47,1.57.82,2.6,1.3,8,3.7,13.42,6,22.1,4.55,7.62-1.23,10.49-6,17.55-9.1,3.76-1.65,7.29-.63,9.75-3.9,3.39-4.5.54-9.25-1.95-14.3-2.86-5.8-6.79-7.74-12.35-11-9.14-5.45-16-6.16-26.65-5.85-11.38.33-17.05,5.13-27.95,8.45C131.91,73,127.88,72.37,122.79,75.74Z"/><path class="cls-7" d="M140.83,97.84c.81.65,4.2,0,6.83.49,4.09.69,8.88,4.12,10.07,3.41.81-.49-2.9-11-8.29-11-4.36,0-8.61,7.15-8.61,7.15"/><path class="cls-8" d="M140.83,97.84c.81.65,4.2,0,6.83.49,4.09.69,8.88,4.12,10.07,3.41.81-.49-2.9-11-8.29-11C145.08,90.67,140.83,97.84,140.83,97.84Z"/><path class="cls-8" d="M48.69,125.46c2.67-2.91,4-5.18,6.83-7.47,3.57-2.93,21.41-9.52,35.1-15.6"/><path class="cls-11" d="M105.73,93.94c-1.79-.65-2.63,4.21-2.44,7.15.17,2.43,2.12,7.31,5.2,8.45,3.92,1.44,6.5-1,8.45-2s2.74-2.74,4.23-4.71c1-1.35,2.44-3.58,2.44-3.58-.65-.49-3.4,1.38-5.69,1.79-3,.53-5.12,1.43-7.8,0-2.89-1.54-3-6.65-4.39-7.15"/><path class="cls-15" d="M104.59,94.75c-1.9,0-1.3,4.55-1.3,6.34,0,2.44,2.12,7.31,5.2,8.45,3.92,1.44,6.5-1,8.45-2s2.74-2.74,4.23-4.71c1-1.35,2.44-3.58,2.44-3.58-.65-.49-3.62,7.16-8,8.45-3.17.94-5.68,1-8.45-.81-4-2.68-2.6-12.19-2.6-12.19"/><path class="cls-10" d="M748.47,477.15a7,7,0,0,0-4.55,2.6c-3.35,4.22,5.7,6.22,9.1,10.4,15.35,18.85,18.76,33.07,31.2,54,12.64,21.21,19.5,33.37,33.15,53.95,1,1.53,1,3,2.6,3.9,3,1.69,7.38-.82,7.66-4.22s-4.37-3.26-7-5.53c-17.12-14.71-19.57-29.4-31.2-48.75s-17.55-30.22-28.6-50.7c-2.78-5.15,0-11.46-5.2-14.3-2.49-1.35-4.38-1.92-7.15-1.3"/><path class="cls-8" d="M748.47,477.15a7,7,0,0,0-4.55,2.6c-3.35,4.22,5.7,6.22,9.1,10.4,15.35,18.85,18.76,33.07,31.2,54,12.64,21.21,19.5,33.37,33.15,53.95,1,1.53,1,3,2.6,3.9,3,1.69,7.38-.82,7.66-4.22s-4.37-3.26-7-5.53c-17.12-14.71-19.57-29.4-31.2-48.75s-17.55-30.22-28.6-50.7c-2.78-5.15,0-11.46-5.2-14.3C753.13,477.1,751.24,476.53,748.47,477.15Z"/><path class="cls-7" d="M744.85,297.06c0-.67-3.33.49-4.88,1.79s-1.93,2.62-2.6,4.55a14.42,14.42,0,0,0-.81,6c.05,2-.33,3.41.81,5a5.63,5.63,0,0,0,3.58,2.28c.68.19,1.78,1,1.78.32s-2.16-4.42-2.6-7.47a20.25,20.25,0,0,1,.49-8.46c.62-2,4.23-2.92,4.23-4.06"/><path class="cls-7" d="M745.17,477.44c0-.67-3.33.48-4.88,1.79a7.19,7.19,0,0,0-2.6,4.55c-.66,3.19.79,5.24,2.6,8,3.6,5.37,15.12,7.53,15.12,6.82s-3.75-8.06-7.64-12c-1.74-1.77-4.6-1.87-4.87-4.06-.33-2.6,2.27-3.9,2.27-5"/></g><line class="cls-16" x1="232.54" y1="313.99" x2="815.13" y2="313.99"/><text class="cls-17" transform="translate(57.34 335.78)"><tspan class="cls-18">M</tspan><tspan x="18.46" y="0">anub</tspan><tspan class="cls-19" x="71.01" y="0">r</tspan><tspan x="79.66" y="0">ium</tspan></text><text class="cls-17" transform="translate(881.97 335.24)">Ischium</text><text class="cls-20" transform="translate(540.16 339.96)"><tspan class="cls-18">M</tspan><tspan x="18.46" y="0">easu</tspan><tspan class="cls-21" x="68.6" y="0">r</tspan><tspan x="76.97" y="0">e length</tspan></text><line class="cls-22" x1="877.93" y1="330.54" x2="815.13" y2="313.99"/><polygon class="cls-22" points="836.17 318.31 837.34 313.89 815.13 313.98 834.4 325.01 835.57 320.6 877.63 331.69 878.24 329.39 836.17 318.31"/><line class="cls-22" x1="177.61" y1="330.54" x2="232.54" y2="313.99"/><polygon class="cls-22" points="212.34 321.31 213.65 325.68 232.54 313.99 210.34 314.67 211.65 319.04 177.27 329.4 177.95 331.68 212.34 321.31"/></svg>